<svg width="686" height="841" viewBox="0 0 686 841" fill="none" xmlns="http://www.w3.org/2000/svg">
<rect width="686" height="841" fill="white"/>
<path d="M323.425 202.616C291.814 168.777 325.005 142.302 345.552 133.294C326.586 159.613 341.864 181.858 351.874 189.691C374.634 213.191 345.552 239.431 328.166 249.614C350.926 233.635 334.488 211.624 323.425 202.616Z" fill="#C6C6C6"/>
<path d="M357.374 169.516C332.085 145.345 358.638 126.434 375.076 120C359.903 138.799 372.125 154.689 380.133 160.284C398.341 177.069 375.076 195.812 361.167 203.086C379.375 191.672 366.225 175.95 357.374 169.516Z" fill="#C6C6C6"/>
<path d="M226.478 341.235V291.81C226.478 281.738 229.523 273.97 235.612 268.507C242.645 262.019 253.922 258.775 269.445 258.775V274.525C259.411 274.525 252.765 276.403 249.506 280.158C246.761 283.317 245.389 288.951 245.389 297.06V341.235C245.389 347.04 244.274 352.289 242.044 356.984C240.415 360.228 238.271 363.429 235.612 366.587C238.356 369.831 240.501 372.99 242.044 376.063C244.274 380.758 245.389 385.965 245.389 391.684V437.651C245.389 446.017 246.761 451.651 249.506 454.553C252.85 458.309 259.497 460.187 269.445 460.187V475.936C253.922 475.936 242.645 472.692 235.612 466.205C229.523 460.742 226.478 452.974 226.478 442.901V391.684C226.478 386.221 224.377 380.331 220.175 374.014C218.202 371.112 216.144 368.636 214 366.587C218.374 362.405 221.89 357.24 224.549 351.094C225.835 348.021 226.478 344.735 226.478 341.235Z" fill="#252525"/>
<path d="M460.267 341.235V291.81C460.267 281.738 457.222 273.97 451.133 268.507C444.101 262.019 432.823 258.775 417.3 258.775V274.525C427.334 274.525 433.981 276.403 437.24 280.158C439.984 283.317 441.356 288.951 441.356 297.06V341.235C441.356 347.04 442.471 352.289 444.701 356.984C446.33 360.228 448.474 363.429 451.133 366.587C448.389 369.831 446.245 372.99 444.701 376.063C442.471 380.758 441.356 385.965 441.356 391.684V437.651C441.356 446.017 439.984 451.651 437.24 454.553C433.895 458.309 427.248 460.187 417.3 460.187V475.936C432.823 475.936 444.101 472.692 451.133 466.205C457.222 460.742 460.267 452.974 460.267 442.901V391.684C460.267 386.221 462.368 380.331 466.57 374.014C468.543 371.112 470.601 368.636 472.745 366.587C468.371 362.405 464.855 357.24 462.196 351.094C460.91 348.021 460.267 344.735 460.267 341.235Z" fill="#252525"/>
<line x1="292.548" y1="466.686" x2="394.198" y2="466.686" stroke="#252525" stroke-width="18.5"/>
<ellipse cx="341.952" cy="279.525" rx="61.4836" ry="9.97031" fill="#ECB016"/>
<path d="M466.823 325.331V323.864L468.222 323.423C473.062 321.899 478.807 321.161 485.416 321.161C494.417 321.161 501.542 323.064 506.434 327.215C511.389 331.42 513.714 337.637 513.714 345.478V390.887C513.714 398.634 511.383 404.776 506.423 408.926C501.532 413.019 494.412 414.894 485.416 414.894C479.607 414.894 473.805 414.148 468.012 412.661L466.51 412.276V410.724V400.341V397.537L469.161 398.45C473.716 400.018 478.917 400.82 484.79 400.82C490.752 400.82 494.276 399.827 495.996 398.37C497.586 396.935 498.6 394.452 498.6 390.422V345.788C498.6 341.865 497.587 339.42 495.978 337.979L495.975 337.976C494.257 336.43 490.84 335.39 485.103 335.39C479.412 335.39 474.161 336.044 469.341 337.336L466.823 338.011V335.404V325.331Z" fill="#252525" stroke="#252525" stroke-width="4"/>
<path d="M430.695 662.325V638.084C430.695 635.608 429.975 634.37 428.534 634.37C426.914 634.37 426.104 635.709 426.104 638.388L423.673 630.994H426.711C426.914 629.396 427.533 628.147 428.568 627.247C429.626 626.324 431.01 625.862 432.721 625.862C435.129 625.862 436.885 626.526 437.988 627.854C439.113 629.182 439.676 631.332 439.676 634.303V662.325H430.695ZM405.577 662.325V626.538H413.781L414.591 634.1V662.325H405.577ZM419.318 662.325V637.409C419.318 635.383 418.597 634.37 417.157 634.37C415.446 634.37 414.591 635.709 414.591 638.388L412.498 630.994H415.064C415.559 627.573 417.371 625.862 420.499 625.862C422.232 625.862 423.594 626.504 424.584 627.787C425.597 629.07 426.104 631.017 426.104 633.627V662.325H419.318Z" fill="#ECB016"/>
<path d="M388.696 662.662L387.919 652.061L387.784 647.402V640.414C387.784 638.5 386.963 637.105 385.32 636.227C383.699 635.327 381.279 634.832 378.061 634.742L368.911 634.505L369.587 626.2L377.386 626.301C383.868 626.391 388.684 627.674 391.836 630.15C394.987 632.603 396.562 636.193 396.562 640.92V654.155L401.525 654.897V662.325L388.696 662.662ZM376.575 663C372.772 663 369.812 662.066 367.696 660.198C365.58 658.33 364.522 655.674 364.522 652.23C364.522 648.224 365.907 645.151 368.675 643.013C371.444 640.875 375.371 639.806 380.458 639.806C382.416 639.806 384.104 639.907 385.522 640.11C386.963 640.312 388.414 640.627 389.877 641.055L388.392 648.179C386.951 647.841 385.657 647.65 384.509 647.605C383.361 647.537 382.157 647.503 380.897 647.503C376.17 647.503 373.807 648.854 373.807 651.555C373.807 652.77 374.235 653.704 375.09 654.357C375.945 654.987 377.194 655.302 378.837 655.302C380.818 655.302 382.472 654.931 383.8 654.188C385.128 653.446 386.119 652.5 386.771 651.352C387.447 650.204 387.784 649.023 387.784 647.807V645.579L389.067 654.762H386.197L387.379 653.682C387.311 655.753 386.839 657.486 385.961 658.881C385.083 660.254 383.845 661.289 382.247 661.987C380.672 662.662 378.781 663 376.575 663Z" fill="#ECB016"/>
<path d="M349.194 663C343.027 663 338.571 661.762 335.825 659.286C333.079 656.81 331.706 652.849 331.706 647.402V642.743H340.821V646.524C340.821 649.248 341.519 651.228 342.915 652.466C344.333 653.704 346.651 654.323 349.87 654.323C350.905 654.323 352.008 654.267 353.178 654.154C354.371 654.019 355.722 653.851 357.23 653.648L358.04 662.19C356.554 662.46 355.103 662.662 353.685 662.797C352.289 662.932 350.792 663 349.194 663ZM331.706 644.87V615.734H340.821V644.87H331.706ZM323.13 634.944V626.537H356.689V634.944H323.13Z" fill="#ECB016"/>
<path d="M307.667 662.662L306.891 652.061L306.756 647.402V640.414C306.756 638.5 305.934 637.105 304.291 636.227C302.671 635.327 300.251 634.832 297.033 634.742L287.883 634.505L288.558 626.2L296.357 626.301C302.839 626.391 307.656 627.674 310.807 630.15C313.958 632.603 315.534 636.193 315.534 640.92V654.155L320.497 654.897V662.325L307.667 662.662ZM295.547 663C291.743 663 288.783 662.066 286.668 660.198C284.552 658.33 283.494 655.674 283.494 652.23C283.494 648.224 284.878 645.151 287.647 643.013C290.415 640.875 294.343 639.806 299.43 639.806C301.388 639.806 303.076 639.907 304.494 640.11C305.934 640.312 307.386 640.627 308.849 641.055L307.364 648.179C305.923 647.841 304.629 647.65 303.481 647.605C302.333 647.537 301.129 647.503 299.868 647.503C295.142 647.503 292.779 648.854 292.779 651.555C292.779 652.77 293.206 653.704 294.061 654.357C294.917 654.987 296.166 655.302 297.809 655.302C299.79 655.302 301.444 654.931 302.772 654.188C304.1 653.446 305.09 652.5 305.743 651.352C306.418 650.204 306.756 649.023 306.756 647.807V645.579L308.039 654.762H305.169L306.351 653.682C306.283 655.753 305.811 657.486 304.933 658.881C304.055 660.254 302.817 661.289 301.219 661.987C299.643 662.662 297.753 663 295.547 663Z" fill="#ECB016"/>
<path d="M245.142 662.325V614.383H254.055V662.325H245.142ZM245.142 662.325V654.121H278.025V662.325H245.142Z" fill="#ECB016"/>
<path d="M428.771 603.557L428.433 595.589L439.912 595.252C443.063 595.162 445.348 594.284 446.766 592.618C448.184 590.975 448.893 588.545 448.893 585.326V559.194L449.568 551.632H458.042V584.246C458.042 590.615 456.545 595.308 453.552 598.324C450.558 601.363 445.787 602.994 439.237 603.22L428.771 603.557ZM439.338 588.094C434.904 588.094 431.449 586.496 428.973 583.3C426.52 580.104 425.293 575.524 425.293 569.559C425.293 563.64 426.52 559.059 428.973 555.818C431.449 552.577 434.927 550.957 439.406 550.957C442.129 550.957 444.189 551.553 445.584 552.746C447.002 553.916 447.925 555.706 448.353 558.114H450.986L448.893 569.559C448.893 566.093 448.308 563.561 447.137 561.963C445.989 560.365 444.245 559.566 441.904 559.566C439.586 559.566 437.796 560.444 436.536 562.199C435.276 563.932 434.645 566.386 434.645 569.559C434.645 572.845 435.253 575.321 436.469 576.987C437.706 578.652 439.518 579.485 441.904 579.485C444.515 579.485 446.327 578.697 447.34 577.122C448.375 575.546 448.893 573.025 448.893 569.559L451.324 580.937H448.15C447.79 583.323 446.856 585.112 445.348 586.305C443.84 587.498 441.837 588.094 439.338 588.094Z" fill="#252525"/>
<path d="M408.379 587.419V566.386C408.379 564.225 407.929 562.559 407.028 561.389C406.151 560.219 404.89 559.633 403.247 559.633C398.656 559.633 396.36 562.942 396.36 569.559L394.267 558.114H397.238C397.575 555.706 398.397 553.916 399.702 552.746C401.008 551.553 402.988 550.957 405.644 550.957C409.426 550.957 412.352 552.105 414.422 554.4C416.493 556.696 417.528 559.937 417.528 564.124V587.419H408.379ZM387.21 587.419V551.632H395.381L396.36 559.194V587.419H387.21Z" fill="#252525"/>
<path d="M359.661 587.419V553.658H368.776V587.419H359.661ZM346.426 587.419V578.979H360.336V587.419H346.426ZM368.101 587.419V578.979H379.378V587.419H368.101ZM348.452 560.072V551.632H368.776V560.072H348.452ZM363.813 546.804C362.08 546.804 360.674 546.264 359.593 545.183C358.513 544.103 357.973 542.696 357.973 540.963C357.973 539.23 358.513 537.823 359.593 536.743C360.674 535.663 362.08 535.123 363.813 535.123C365.547 535.123 366.953 535.663 368.034 536.743C369.114 537.823 369.654 539.23 369.654 540.963C369.654 542.696 369.114 544.103 368.034 545.183C366.953 546.264 365.547 546.804 363.813 546.804Z" fill="#252525"/>
<path d="M317.797 588.094C313.363 588.094 309.908 586.496 307.432 583.3C304.979 580.104 303.752 575.524 303.752 569.559C303.752 563.64 304.979 559.059 307.432 555.818C309.908 552.577 313.385 550.957 317.864 550.957C320.475 550.957 322.456 551.553 323.806 552.746C325.179 553.916 326.068 555.706 326.473 558.114H329.444L327.351 569.559C327.351 566.093 326.766 563.561 325.596 561.963C324.448 560.365 322.703 559.566 320.363 559.566C318.044 559.566 316.255 560.444 314.995 562.199C313.734 563.932 313.104 566.386 313.104 569.559C313.104 572.845 313.712 575.321 314.927 576.987C316.165 578.652 317.977 579.485 320.363 579.485C322.974 579.485 324.785 578.697 325.798 577.122C326.834 575.546 327.351 573.025 327.351 569.559L329.782 580.937H326.609C326.248 583.323 325.314 585.112 323.806 586.305C322.298 587.498 320.295 588.094 317.797 588.094ZM328.668 587.757L327.351 580.667V536.777H336.501V587.419L328.668 587.757Z" fill="#252525"/>
<path d="M280.828 588.094C275.673 588.094 271.678 586.474 268.842 583.233C266.006 579.992 264.588 575.423 264.588 569.526C264.588 563.606 266.006 559.037 268.842 555.818C271.678 552.577 275.673 550.957 280.828 550.957C285.982 550.957 289.977 552.577 292.813 555.818C295.649 559.037 297.067 563.606 297.067 569.526C297.067 575.423 295.649 579.992 292.813 583.233C289.977 586.474 285.982 588.094 280.828 588.094ZM280.828 579.418C283.033 579.418 284.733 578.562 285.926 576.852C287.119 575.119 287.715 572.677 287.715 569.526C287.715 566.352 287.119 563.91 285.926 562.199C284.733 560.489 283.033 559.633 280.828 559.633C278.644 559.633 276.945 560.489 275.73 562.199C274.537 563.91 273.94 566.352 273.94 569.526C273.94 572.677 274.537 575.119 275.73 576.852C276.945 578.562 278.644 579.418 280.828 579.418Z" fill="#252525"/>
<path d="M245.31 588.094C230.028 588.094 222.386 579.857 222.386 563.381C222.386 555.571 224.311 549.527 228.159 545.251C232.008 540.952 237.455 538.803 244.5 538.803C247.674 538.803 250.487 539.32 252.94 540.356C255.394 541.368 257.251 542.82 258.511 544.711L253.514 551.261C252.502 550 251.207 549.032 249.632 548.357C248.079 547.659 246.391 547.31 244.568 547.31C240.696 547.31 237.59 548.683 235.249 551.429C232.931 554.153 231.772 558.024 231.772 563.043C231.772 574.072 236.667 579.586 246.458 579.586C249.722 579.586 252.94 578.911 256.114 577.561L257.667 585.799C253.751 587.329 249.632 588.094 245.31 588.094Z" fill="#252525"/>
</svg>
