<svg width="33" height="37" viewBox="0 0 33 37" fill="none" xmlns="http://www.w3.org/2000/svg">
<path d="M11.3752 8.58803C8.08919 5.07046 11.5395 2.31829 13.6754 1.3819C11.7038 4.11778 13.292 6.43026 14.3326 7.24451C16.6985 9.68727 13.6754 12.415 11.8681 13.4735C14.234 11.8125 12.5253 9.52442 11.3752 8.58803Z" fill="#C6C6C6"/>
<path d="M14.9042 5.14724C12.2755 2.63469 15.0357 0.66885 16.7444 0C15.1671 1.95421 16.4377 3.60597 17.2701 4.18758C19.1629 5.93241 16.7444 7.8808 15.2986 8.63689C17.1913 7.45041 15.8243 5.81609 14.9042 5.14724Z" fill="#C6C6C6"/>
<path d="M1.29715 22.9976V17.8599C1.29715 16.8128 1.61363 16.0053 2.2466 15.4374C2.97764 14.763 4.14998 14.4258 5.76361 14.4258V16.063C4.72054 16.063 4.02962 16.2582 3.69085 16.6486C3.40557 16.977 3.26293 17.5626 3.26293 18.4056V22.9976C3.26293 23.601 3.14703 24.1467 2.91524 24.6348C2.74585 24.972 2.52297 25.3047 2.2466 25.6331C2.53189 25.9702 2.75477 26.2986 2.91524 26.618C3.14703 27.1061 3.26293 27.6473 3.26293 28.2419V33.0202C3.26293 33.8898 3.40557 34.4755 3.69085 34.7772C4.03854 35.1676 4.72946 35.3628 5.76361 35.3628V37C4.14998 37 2.97764 36.6628 2.2466 35.9884C1.61363 35.4205 1.29715 34.613 1.29715 33.5659V28.2419C1.29715 27.674 1.07873 27.0617 0.641887 26.405C0.43684 26.1033 0.222877 25.846 0 25.6331C0.45467 25.1983 0.820189 24.6614 1.09656 24.0225C1.23028 23.7031 1.29715 23.3614 1.29715 22.9976Z" fill="white"/>
<path d="M25.5998 22.9976V17.8599C25.5998 16.8128 25.2833 16.0053 24.6504 15.4374C23.9193 14.763 22.747 14.4258 21.1334 14.4258V16.063C22.1764 16.063 22.8673 16.2582 23.2061 16.6486C23.4914 16.977 23.634 17.5626 23.634 18.4056V22.9976C23.634 23.601 23.7499 24.1467 23.9817 24.6348C24.1511 24.972 24.374 25.3047 24.6504 25.6331C24.3651 25.9702 24.1422 26.2986 23.9817 26.618C23.7499 27.1061 23.634 27.6473 23.634 28.2419V33.0202C23.634 33.8898 23.4914 34.4755 23.2061 34.7772C22.8584 35.1676 22.1675 35.3628 21.1334 35.3628V37C22.747 37 23.9193 36.6628 24.6504 35.9884C25.2833 35.4205 25.5998 34.613 25.5998 33.5659V28.2419C25.5998 27.674 25.8182 27.0617 26.2551 26.405C26.4601 26.1033 26.6741 25.846 26.897 25.6331C26.4423 25.1983 26.0768 24.6614 25.8004 24.0225C25.6667 23.7031 25.5998 23.3614 25.5998 22.9976Z" fill="white"/>
<line x1="8.16504" y1="36.2" x2="18.7317" y2="36.2" stroke="white" stroke-width="1.6"/>
<ellipse cx="13.301" cy="16.5828" rx="6.3913" ry="1.03643" fill="#ECB016"/>
<path d="M27.2391 21.3444V21.161L27.414 21.1059C27.9224 20.9458 28.5241 20.8688 29.214 20.8688C30.1547 20.8688 30.9068 21.0675 31.4261 21.5082C31.9532 21.9555 32.1978 22.6152 32.1978 23.4387V28.159C32.1978 28.973 31.9525 29.6249 31.4248 30.0665C30.9056 30.5009 30.154 30.6967 29.214 30.6967C28.6065 30.6967 27.9999 30.6187 27.3944 30.4633L27.2066 30.4151V30.2211V29.1417V28.7912L27.538 28.9054C28.0063 29.0666 28.5422 29.1495 29.1489 29.1495C29.7666 29.1495 30.1193 29.0461 30.2861 28.9052C30.4387 28.7671 30.5424 28.5229 30.5424 28.1107V23.4709C30.5424 23.0697 30.4389 22.8294 30.2839 22.6905L30.2834 22.6901C30.1171 22.5404 29.7756 22.4321 29.1814 22.4321C28.5931 22.4321 28.051 22.4997 27.5539 22.633L27.2391 22.7174V22.3915V21.3444Z" fill="white" stroke="#F3F3F3" stroke-width="0.5"/>
</svg>
