<svg width="22" height="22" viewBox="0 0 22 22" fill="none" xmlns="http://www.w3.org/2000/svg">
<path d="M1.5 11C1.5 6.522 1.5 4.282 2.891 2.891C4.282 1.5 6.521 1.5 11 1.5C15.478 1.5 17.718 1.5 19.109 2.891C20.5 4.282 20.5 6.521 20.5 11C20.5 15.478 20.5 17.718 19.109 19.109C17.718 20.5 15.479 20.5 11 20.5C6.522 20.5 4.282 20.5 2.891 19.109C1.5 17.718 1.5 15.479 1.5 11Z" stroke="#B5B5B5" stroke-width="1.5" stroke-linecap="round" stroke-linejoin="round"/>
<path d="M16.508 5.5H16.498M15.5 11C15.5 12.1935 15.0259 13.3381 14.182 14.182C13.3381 15.0259 12.1935 15.5 11 15.5C9.80653 15.5 8.66193 15.0259 7.81802 14.182C6.97411 13.3381 6.5 12.1935 6.5 11C6.5 9.80653 6.97411 8.66193 7.81802 7.81802C8.66193 6.97411 9.80653 6.5 11 6.5C12.1935 6.5 13.3381 6.97411 14.182 7.81802C15.0259 8.66193 15.5 9.80653 15.5 11Z" stroke="#B5B5B5" stroke-width="1.5" stroke-linecap="round" stroke-linejoin="round"/>
</svg>
