<svg width="18" height="19" viewBox="0 0 18 19" fill="none" xmlns="http://www.w3.org/2000/svg">
<path d="M13 5V9M9 5V9M13 1H5C3.114 1 2.172 1 1.586 1.584C1 2.167 1 3.106 1 4.984V11.56C1 11.93 1 12.115 1.025 12.27C1.0921 12.6861 1.28894 13.0703 1.58741 13.3679C1.88587 13.6655 2.27071 13.8611 2.687 13.927C2.843 13.951 3.028 13.951 3.4 13.951C3.493 13.951 3.54 13.951 3.578 13.957C3.68213 13.9734 3.77842 14.0222 3.85313 14.0965C3.92784 14.1709 3.97715 14.267 3.994 14.371C4 14.41 4 14.456 4 14.549V16.092C4 17.274 4 17.865 4.335 17.982C4.669 18.099 5.04 17.638 5.781 16.714L7.7 14.324C7.847 14.141 7.921 14.049 8.024 14C8.126 13.951 8.244 13.951 8.481 13.951H12.343C13.161 13.951 13.569 13.951 13.937 13.799C14.304 13.648 14.593 13.359 15.172 12.784L15.828 12.129C16.407 11.554 16.695 11.266 16.848 10.899C17 10.533 17 10.126 17 9.312V4.985C17 3.106 17 2.167 16.414 1.584C15.828 1 14.886 1 13 1Z" stroke="#B5B5B5" stroke-width="1.5" stroke-linecap="round" stroke-linejoin="round"/>
</svg>
