<?xml version="1.0" encoding="UTF-8" standalone="no"?>
<!-- Created with Inkscape (http://www.inkscape.org/) -->

<svg
   width="26.135815"
   height="29.802488"
   viewBox="0 0 26.135815 29.802488"
   version="1.1"
   id="svg1"
   xmlns="http://www.w3.org/2000/svg"
   xmlns:svg="http://www.w3.org/2000/svg">
  <defs
     id="defs1" />
  <g
     id="layer1"
     transform="translate(-3.7568088,-0.84778905)">
    <g
       id="g1"
       transform="matrix(0.80547266,0,0,0.80547266,0.53491809,3.264207)">
      <path
         d="M 15.3749,5.58803 C 12.08895,2.07046 15.5392,-0.68171 17.6751,-1.6181 15.7035,1.11778 17.2917,3.43026 18.3323,4.24451 20.6982,6.68727 17.6751,9.415 15.8678,10.4735 18.2337,8.8125 16.525,6.52442 15.3749,5.58803 Z"
         fill="#c6c6c6"
         id="path1" />
      <path
         d="M 18.9039,2.14724 C 16.2751,-0.36531 19.0354,-2.33115 20.7441,-3 19.1668,-1.04579 20.4374,0.60597 21.2698,1.18758 23.1626,2.93241 20.7441,4.8808 19.2983,5.63689 21.191,4.45041 19.824,2.81609 18.9039,2.14724 Z"
         fill="#c6c6c6"
         id="path2" />
      <path
         d="m 5.29715,19.9976 v -5.1377 c 0,-1.0471 0.31648,-1.8546 0.94945,-2.4225 0.73104,-0.6744 1.90338,-1.0116 3.51701,-1.0116 v 1.6372 c -1.04307,0 -1.73399,0.1952 -2.07276,0.5856 -0.28528,0.3284 -0.42792,0.914 -0.42792,1.757 v 4.592 c 0,0.6034 -0.1159,1.1491 -0.34769,1.6372 -0.16939,0.3372 -0.39227,0.6699 -0.66864,0.9983 0.28529,0.3371 0.50817,0.6655 0.66864,0.9849 0.23179,0.4881 0.34769,1.0293 0.34769,1.6239 v 4.7783 c 0,0.8696 0.14264,1.4553 0.42792,1.757 0.34769,0.3904 1.03861,0.5856 2.07276,0.5856 V 34 C 8.14998,34 6.97764,33.6628 6.2466,32.9884 5.61363,32.4205 5.29715,31.613 5.29715,30.5659 v -5.324 C 5.29715,24.674 5.07873,24.0617 4.641887,23.405 4.43684,23.1033 4.222877,22.846 4,22.6331 4.45467,22.1983 4.820189,21.6614 5.09656,21.0225 5.23028,20.7031 5.29715,20.3614 5.29715,19.9976 Z"
         fill="#ffffff"
         id="path3" />
      <path
         d="m 29.5997,19.9976 v -5.1377 c 0,-1.0471 -0.3165,-1.8546 -0.9494,-2.4225 -0.7311,-0.6744 -1.9034,-1.0116 -3.517,-1.0116 v 1.6372 c 1.043,0 1.7339,0.1952 2.0727,0.5856 0.2853,0.3284 0.4279,0.914 0.4279,1.757 v 4.592 c 0,0.6034 0.1159,1.1491 0.3477,1.6372 0.1694,0.3372 0.3923,0.6699 0.6687,0.9983 -0.2853,0.3371 -0.5082,0.6655 -0.6687,0.9849 -0.2318,0.4881 -0.3477,1.0293 -0.3477,1.6239 v 4.7783 c 0,0.8696 -0.1426,1.4553 -0.4279,1.757 -0.3477,0.3904 -1.0386,0.5856 -2.0727,0.5856 V 34 c 1.6136,0 2.7859,-0.3372 3.517,-1.0116 0.6329,-0.5679 0.9494,-1.3754 0.9494,-2.4225 v -5.324 c 0,-0.5679 0.2184,-1.1802 0.6553,-1.8369 0.205,-0.3017 0.419,-0.559 0.6419,-0.7719 -0.4547,-0.4348 -0.8202,-0.9717 -1.0966,-1.6106 -0.1337,-0.3194 -0.2006,-0.6611 -0.2006,-1.0249 z"
         fill="#ffffff"
         id="path4" />
      <line
         x1="12.16513"
         y1="33.200001"
         x2="22.7318"
         y2="33.200001"
         stroke="#ffffff"
         stroke-width="1.6"
         id="line4" />
      <ellipse
         cx="17.3008"
         cy="13.5828"
         rx="6.3913002"
         ry="1.03643"
         fill="#eec048"
         id="ellipse4" />
      <path
         d="M 31.2391,18.3444 V 18.161 l 0.1749,-0.0551 c 0.5084,-0.1601 1.1101,-0.2371 1.8,-0.2371 0.9407,0 1.6928,0.1987 2.2121,0.6394 0.5271,0.4473 0.7717,1.107 0.7717,1.9305 v 4.7203 c 0,0.814 -0.2453,1.4659 -0.773,1.9075 -0.5192,0.4344 -1.2708,0.6302 -2.2108,0.6302 -0.6075,0 -1.2141,-0.078 -1.8196,-0.2334 l -0.1878,-0.0482 v -0.194 -1.0794 -0.3505 l 0.3314,0.1142 c 0.4683,0.1612 1.0042,0.2441 1.6109,0.2441 0.6177,0 0.9704,-0.1034 1.1372,-0.2443 0.1526,-0.1381 0.2563,-0.3823 0.2563,-0.7945 v -4.6398 c 0,-0.4012 -0.1035,-0.6415 -0.2585,-0.7804 l -5e-4,-4e-4 c -0.1663,-0.1497 -0.5078,-0.258 -1.102,-0.258 -0.5883,0 -1.1304,0.0676 -1.6275,0.2009 l -0.3148,0.0844 v -0.3259 z"
         fill="#ffffff"
         stroke="#f3f3f3"
         stroke-width="0.5"
         id="path5" />
    </g>
  </g>
</svg>
