<svg width="195" height="159" viewBox="0 0 195 159" fill="none" xmlns="http://www.w3.org/2000/svg">
<path d="M0 4C0 1.79086 1.79086 0 4 0H191C193.209 0 195 1.79086 195 4V159H0V4Z" fill="#171717"/>
<rect x="5" y="6" width="186" height="71" rx="2" fill="#1E1E1E"/>
<path d="M5 84C5 82.8954 5.89543 82 7 82H66C67.1046 82 68 82.8954 68 84V159H5V84Z" fill="#1E1E1E"/>
<path d="M73 84C73 82.8954 73.8954 82 75 82H189C190.105 82 191 82.8954 191 84V159H73V84Z" fill="#1E1E1E"/>
<path fill-rule="evenodd" clip-rule="evenodd" d="M62.555 54.7936C62.4485 54.7498 62.3314 54.7385 62.2184 54.7611C62.1055 54.7837 62.0018 54.8393 61.9204 54.9208C61.839 55.0022 61.7835 55.106 61.761 55.2189C61.7384 55.3319 61.7498 55.449 61.7937 55.5555L65.8771 65.4721C65.9208 65.5784 65.9949 65.6693 66.0902 65.7336C66.1854 65.7979 66.2975 65.8326 66.4124 65.8334C66.5273 65.8342 66.6399 65.8011 66.736 65.7382C66.8321 65.6753 66.9075 65.5853 66.9527 65.4797L68.519 61.8251C68.578 61.6875 68.6876 61.5779 68.8252 61.5189L72.4798 59.9526C72.5854 59.9074 72.6754 59.832 72.7383 59.7359C72.8012 59.6397 72.8343 59.5272 72.8335 59.4123C72.8327 59.2974 72.798 59.1853 72.7337 59.0901C72.6695 58.9948 72.5785 58.9207 72.4722 58.877L62.555 54.7936Z" fill="#EEC048" fill-opacity="0.56"/>
</svg>
