<svg width="211" height="151" viewBox="0 0 211 151" fill="none" xmlns="http://www.w3.org/2000/svg">
<mask id="mask0_44_38" style="mask-type:alpha" maskUnits="userSpaceOnUse" x="-46" y="0" width="321" height="197">
<path d="M274.236 0.268066H-45.6018V196.053H274.236V0.268066Z" fill="url(#paint0_linear_44_38)"/>
</mask>
<g mask="url(#mask0_44_38)">
<path opacity="0.6" d="M36.4047 269.867C35.2139 269.141 37.3829 262.969 42.6774 251.962C47.972 240.954 56.2128 225.505 66.5673 207.158C76.9217 188.811 89.026 168.221 101.666 147.462C114.311 126.693 127.043 106.492 138.578 88.8653C150.124 71.2449 160.069 56.8317 167.414 47.08C174.765 37.3182 179.256 32.5671 180.447 33.2929M19.0142 257.343C14.0678 253.157 13.3364 244.156 16.8874 231.247C20.4484 218.344 28.1762 201.973 39.2888 183.801C50.4014 165.629 64.5212 146.289 80.2152 127.732C95.9148 109.165 112.632 92.0317 128.691 78.0463C144.76 64.0661 159.602 53.721 171.735 48.0675C183.868 42.4133 192.863 41.6414 197.815 45.8176M2.04864 240.25C-5.08199 231.688 -7.1632 219.188 -4.0055 204C-0.847793 188.812 7.45981 171.467 20.0658 153.71C32.6719 135.952 49.1385 118.408 67.8122 102.841C86.4857 87.2742 106.708 74.2398 126.434 65.0394C146.171 55.8442 164.719 50.7983 180.235 50.4197C195.745 50.0513 207.666 54.3522 214.787 62.9092M-14.3596 215.621C-21.3095 202.298 -22.4659 186.243 -17.7063 169.08C-12.9466 151.916 -2.43922 134.251 12.7455 117.848C27.9402 101.451 47.2797 86.9013 68.8295 75.6545C90.3796 64.4076 113.386 56.886 135.521 53.8067C157.666 50.7324 178.161 52.2385 194.952 58.1549C211.742 64.0718 224.241 74.2161 231.191 87.5389M-27.3496 178.792C-30.8658 161.245 -28.0466 142.744 -19.1756 125.154C-10.3045 107.565 4.30255 91.5028 23.1856 78.5931C42.0687 65.6835 64.5545 56.3686 88.386 51.5868C112.217 46.8057 136.555 46.7379 158.954 51.3758C181.353 56.0131 201.02 65.1993 215.98 78.0067C230.94 90.814 240.67 106.809 244.186 124.357M-27.809 126.767C-24.3087 107.53 -14.5739 89.785 0.420862 75.3117C15.4057 60.8332 35.1212 50.1357 57.5889 44.2853C80.0508 38.445 104.465 37.6558 128.378 42.0187C152.295 46.3721 174.866 55.7195 193.818 69.1107C212.77 82.5019 227.459 99.4624 236.377 118.299C245.295 137.135 248.155 157.17 244.655 176.407M-3.60744 70.1788C14.0332 45.8975 42.7478 31.1761 76.233 29.2677C109.719 27.3593 145.219 38.4182 174.929 60.0012C204.639 81.5842 226.133 111.943 234.67 144.373C243.202 176.814 238.095 208.679 220.464 232.965M39.2226 31.6071C63.8577 17.3941 94.778 16.3939 125.177 28.8456C155.576 41.2967 182.964 66.1529 201.311 97.9781C219.663 129.794 227.476 165.957 223.024 198.51C218.572 231.063 202.235 257.338 177.599 271.551M81.2056 15.778C105.661 10.876 131.979 20.4773 154.377 42.4843C176.775 64.4914 193.406 97.0744 200.626 133.09C207.847 169.106 205.045 205.596 192.859 234.527C180.672 263.458 160.084 282.472 135.629 287.374M114.565 13.2173C134.281 14.096 152.547 29.5171 165.34 56.0802C178.132 82.6426 184.394 118.191 182.776 154.884C181.142 191.582 171.753 226.422 156.653 251.752C141.554 277.082 122.001 290.825 102.284 289.945M140.541 16.8626C153.373 19.919 162.288 37.056 165.336 64.4805C168.384 91.9044 165.311 127.388 156.786 163.123C148.267 198.848 134.993 231.907 119.899 255.01C104.804 278.113 89.1168 289.376 76.2912 286.309M161.817 23.7888C167.118 26.0067 166.565 41.5922 160.297 67.1218C154.029 92.6514 142.557 126.037 128.396 159.925C114.235 193.812 98.553 225.443 84.7824 247.842C71.0277 270.237 60.3218 281.583 55.0214 279.365M61.0068 281.719C47.4907 276.791 34.366 269.501 23.0391 260.63M111.501 290.048C90.1737 290.53 65.2009 283.595 42.2106 270.825C19.2199 258.056 0.148249 240.514 -10.7325 222.157M144.501 285.304C117.379 292.626 79.5003 285.314 44.8607 266.075C10.2212 246.835 -16.0079 218.539 -24.1303 191.641M171.929 274.651C157.631 282.032 138.229 284.438 116.297 281.551C94.3643 278.663 70.9101 270.627 49.0686 258.496C27.227 246.364 8.00278 230.709 -6.03617 213.604C-20.0806 196.509 -28.2948 178.763 -29.5888 162.723M195.172 259.535C181.2 270.766 159.723 275.766 134.225 273.724C108.726 271.681 80.7062 262.717 54.7243 248.285C28.7422 233.854 6.32261 214.803 -8.89014 194.234C-24.1029 173.664 -31.2128 152.785 -29.0681 134.986M214.413 240.706C201.842 255.669 179.312 263.43 151.148 262.499C122.978 261.579 91.1347 252.033 61.7254 235.698C32.3161 219.363 7.38123 197.373 -8.29096 173.943C-23.9631 150.512 -29.2874 127.281 -23.2394 108.707M229.48 218.819C222.709 231.015 210.468 239.876 193.986 244.539C177.493 249.197 157.351 249.482 135.564 245.353C113.776 241.224 91.1232 232.841 69.8666 221.035C48.6091 209.228 29.5204 194.426 14.4988 178.11C-0.522704 161.795 -10.9389 144.537 -15.694 128.077C-20.4589 111.612 -19.3954 96.5308 -12.6298 84.3445M229.48 218.819C211.653 250.93 181.794 274.646 146.483 284.745C111.172 294.844 73.3065 290.495 41.193 272.658C9.08924 254.827 -14.6222 224.961 -24.7238 189.652C-34.8199 154.334 -30.4725 116.46 -12.6397 84.3387C5.18769 52.2283 35.0472 28.5118 70.348 18.4078C105.659 8.3095 143.524 12.6577 175.638 30.4943C207.742 48.3258 231.453 78.1921 241.555 113.501C251.651 148.819 247.308 186.708 229.48 218.819ZM240.09 194.457C235.468 208.664 224.405 219.487 208.171 225.689C191.942 231.88 171.212 233.199 148.357 229.475C125.497 225.762 101.439 217.156 78.953 204.667C56.4578 192.173 36.4467 176.301 21.2104 158.855C5.974 141.409 -3.88 123.115 -7.19465 106.069C-10.5192 89.0169 -7.17221 73.9072 2.43732 62.4577M245.893 168.177C243.973 184.078 234.763 196.722 219.476 204.461C204.184 212.21 183.516 214.678 160.194 211.563C136.872 208.448 111.975 199.883 88.7664 186.992C65.5577 174.101 45.1271 157.491 30.1548 139.335C15.1823 121.181 6.35171 102.328 4.84406 85.2481C3.33642 68.1681 9.19819 53.6653 21.6725 43.6381M246.44 140.441C247.826 157.622 241.196 171.945 227.556 181.247C213.916 190.549 194.008 194.334 170.823 192.021C147.639 189.708 122.45 181.434 99.0536 168.439C75.6569 155.444 55.3097 138.426 41.1009 119.97C26.8824 101.507 19.5704 82.6037 20.2539 66.1056C20.9375 49.6075 29.598 36.4126 44.9021 28.5022M240.981 111.523C246.401 129.492 243.275 145.346 232.146 156.289C221.017 167.231 202.604 172.547 180.165 171.297C157.735 170.052 132.732 162.308 109.593 149.456C86.4531 136.604 66.6741 119.473 53.7508 101.083C40.8374 82.6977 35.6153 64.2547 39.0184 49.021C42.4215 33.7873 54.2299 22.7419 72.3398 17.8546M227.564 80.9965C238.249 99.0518 240.13 116.416 232.781 129.303C225.432 142.19 209.457 149.559 188.348 149.787C167.234 150.024 142.692 143.107 120.088 130.552C97.4833 117.997 78.6397 100.816 67.6799 82.7642C56.7196 64.712 54.523 47.2623 61.5747 34.2107C68.6262 21.159 84.3578 13.5761 105.329 13.1041M193.796 42.5374C208.925 54.3886 219.95 68.3548 224.853 81.8631C229.746 95.3662 228.181 107.499 220.429 116C212.677 124.502 199.279 128.791 182.704 128.089C166.129 127.386 147.513 121.726 130.307 112.169C113.091 102.607 98.4552 89.7984 89.097 76.097C79.7395 62.3956 76.2976 48.7531 79.414 37.6763C82.5311 26.6002 91.9902 18.8529 106.047 15.8746C120.093 12.8911 137.784 14.875 155.838 21.4545M212.446 93.729C207.804 102.092 197.554 106.898 183.968 107.091C170.372 107.279 154.553 102.835 139.982 94.7414C125.401 86.643 113.267 75.5604 106.249 63.9241C99.2218 52.282 97.8867 41.0537 102.534 32.6815C107.177 24.3196 117.427 19.5129 131.013 19.3197C144.609 19.1324 160.428 23.5758 174.999 31.6692C189.569 39.7625 201.713 50.8501 208.731 62.4864C215.749 74.1234 217.088 85.3671 212.446 93.729ZM198.199 78.0258C195.036 83.7222 188.064 86.9921 178.817 87.1194C169.57 87.2467 158.792 84.2281 148.876 78.721C138.961 73.2133 130.696 65.6675 125.922 57.7398C121.142 49.8217 120.23 42.1729 123.393 36.4759C126.556 30.7789 133.529 27.5096 142.775 27.3824C152.022 27.2551 162.801 30.2737 172.716 35.7807C182.631 41.2884 190.896 48.8343 195.671 56.762C200.451 64.68 201.362 72.3289 198.199 78.0258ZM181.745 64.1288C178.411 70.1327 167.231 70.2881 156.771 64.4779C146.311 58.6678 140.532 49.0939 143.866 43.09C147.199 37.086 158.379 36.9306 168.839 42.7402C179.3 48.5503 185.078 58.1248 181.745 64.1288Z" stroke="#7E7E7E" stroke-width="0.629955"/>
<path d="M61.4355 -24.6086C83.0067 -17.3722 99.5722 -0.42329 108.294 13.099C31.8923 13.2634 -30.0076 75.1972 -30.1396 151.624C-45.6818 145.512 -57.0917 136.813 -64.3512 126.21C-71.6454 115.556 -74.7573 102.969 -73.6505 89.125C-71.4357 61.4306 -52.3341 28.7037 -16.043 -3.56213C12.9611 -29.3495 39.7427 -31.8852 61.4355 -24.6086Z" fill="url(#paint1_radial_44_38)" fill-opacity="0.08" stroke="url(#paint2_radial_44_38)" stroke-width="0.522968"/>
</g>
<path d="M104.742 60.9362C108.032 59.8868 116.705 57.3619 125.077 55.6594" stroke="url(#paint3_linear_44_38)" stroke-width="0.522968"/>
<path opacity="0.6" d="M104.696 60.8461C93.0555 64.1634 77.1531 70.8529 64.8665 77.813C63.0396 74.215 59.2024 65.6535 58.4696 60.1951" stroke="url(#paint4_linear_44_38)" stroke-width="0.629955"/>
<path opacity="0.6" d="M84.3923 68.2339C69.8276 73.9123 42.9907 89.8911 29.4577 101.916" stroke="url(#paint5_linear_44_38)" stroke-width="0.629955"/>
<path d="M104.509 60.7309C102.656 57.4648 99.1156 49.1797 99.7774 42.164C100.439 35.1476 103.219 31.4748 104.046 30.4483C92.035 28.5617 65.9618 27.5359 45.3807 35.0152" stroke="url(#paint6_linear_44_38)" stroke-width="0.629955"/>
<path d="M68.4151 142.503C72.6294 135.954 87.0253 119.779 93.7313 112.374C87.2664 107.23 79.9242 98.9957 77.0009 95.4751C87.5432 87.0607 104.913 76.5135 112.28 72.2919C110.339 69.971 106.155 64.418 104.628 61.0208" stroke="url(#paint7_linear_44_38)" stroke-width="0.629955"/>
<path d="M133.418 146.548C137.964 138.264 146.689 112.011 150.756 100.018C132.782 92.5612 119.982 81.3258 112.275 72.2515" stroke="url(#paint8_linear_44_38)" stroke-width="0.629955"/>
<path d="M182.563 128.298C166.21 127.392 150.203 121.761 144.243 119.059C145.811 114.753 149.313 104.92 150.776 100.042" stroke="url(#paint9_linear_44_38)" stroke-width="0.629955"/>
<path d="M104.695 20.4741V60.6305" stroke="url(#paint10_linear_44_38)" stroke-width="0.581638"/>
<path d="M106.418 60.7943C106.418 59.7345 105.563 58.8754 104.508 58.8754C103.453 58.8754 102.598 59.7345 102.598 60.7943C102.598 61.854 103.453 62.7131 104.508 62.7131C105.563 62.7131 106.418 61.854 106.418 60.7943Z" fill="#EDEDED"/>
<path d="M184.471 128.297C184.471 127.237 183.616 126.378 182.561 126.378C181.506 126.378 180.651 127.237 180.651 128.297C180.651 129.357 181.506 130.216 182.561 130.216C183.616 130.216 184.471 129.357 184.471 128.297Z" fill="#EDEDED"/>
<path d="M31.368 101.916C31.368 100.856 30.513 99.9968 29.4581 99.9968C28.4033 99.9968 27.5482 100.856 27.5482 101.916C27.5482 102.975 28.4033 103.834 29.4581 103.834C30.513 103.834 31.368 102.975 31.368 101.916Z" fill="#EDEDED"/>
<defs>
<linearGradient id="paint0_linear_44_38" x1="83.1282" y1="-21.8809" x2="185.581" y2="112.405" gradientUnits="userSpaceOnUse">
<stop stop-color="white"/>
<stop offset="1" stop-color="white" stop-opacity="0"/>
</linearGradient>
<radialGradient id="paint1_radial_44_38" cx="0" cy="0" r="1" gradientUnits="userSpaceOnUse" gradientTransform="translate(40.5403 72.0648) rotate(-132.565) scale(65.9882 66.1021)">
<stop stop-color="white"/>
<stop offset="1" stop-color="#D9D9D9" stop-opacity="0"/>
</radialGradient>
<radialGradient id="paint2_radial_44_38" cx="0" cy="0" r="1" gradientUnits="userSpaceOnUse" gradientTransform="translate(22.601 54.6912) rotate(-113.957) scale(39.27 80.8473)">
<stop stop-color="#D9D9D9"/>
<stop offset="1" stop-color="#D9D9D9" stop-opacity="0"/>
</radialGradient>
<linearGradient id="paint3_linear_44_38" x1="103.551" y1="59.7448" x2="128.481" y2="56.5971" gradientUnits="userSpaceOnUse">
<stop stop-color="white"/>
<stop offset="1" stop-color="white" stop-opacity="0"/>
</linearGradient>
<linearGradient id="paint4_linear_44_38" x1="112.719" y1="62.7391" x2="93.4018" y2="78.7406" gradientUnits="userSpaceOnUse">
<stop stop-color="#EDEDED"/>
<stop offset="1" stop-color="white" stop-opacity="0"/>
</linearGradient>
<linearGradient id="paint5_linear_44_38" x1="90.854" y1="66.6325" x2="31.3227" y2="115.306" gradientUnits="userSpaceOnUse">
<stop stop-color="#EDEDED"/>
<stop offset="1" stop-color="white" stop-opacity="0"/>
</linearGradient>
<linearGradient id="paint6_linear_44_38" x1="104.509" y1="59.4685" x2="97.1723" y2="42.5175" gradientUnits="userSpaceOnUse">
<stop stop-color="#EDEDED"/>
<stop offset="1" stop-color="white" stop-opacity="0"/>
</linearGradient>
<linearGradient id="paint7_linear_44_38" x1="104.822" y1="79.0077" x2="76.7365" y2="135.952" gradientUnits="userSpaceOnUse">
<stop stop-color="#EDEDED"/>
<stop offset="1" stop-color="white" stop-opacity="0"/>
</linearGradient>
<linearGradient id="paint8_linear_44_38" x1="135.294" y1="105.299" x2="134.428" y2="146.548" gradientUnits="userSpaceOnUse">
<stop stop-color="#EDEDED"/>
<stop offset="1" stop-color="white" stop-opacity="0"/>
</linearGradient>
<linearGradient id="paint9_linear_44_38" x1="161.526" y1="122.873" x2="185.067" y2="130.977" gradientUnits="userSpaceOnUse">
<stop stop-color="#EDEDED"/>
<stop offset="1" stop-color="white" stop-opacity="0"/>
</linearGradient>
<linearGradient id="paint10_linear_44_38" x1="-nan" y1="-nan" x2="-nan" y2="-nan" gradientUnits="userSpaceOnUse">
<stop stop-color="#EDEDED"/>
<stop offset="1" stop-color="white" stop-opacity="0"/>
</linearGradient>
</defs>
</svg>
