<?xml version="1.0" encoding="UTF-8" standalone="no"?>
<svg
   width="124.81533"
   height="120.715"
   viewBox="0 0 124.81533 120.715"
   fill="none"
   version="1.1"
   id="svg6"
   sodipodi:docname="Group 16.svg"
   inkscape:export-filename="Group 16.png"
   inkscape:export-xdpi="96"
   inkscape:export-ydpi="96"
   xmlns:inkscape="http://www.inkscape.org/namespaces/inkscape"
   xmlns:sodipodi="http://sodipodi.sourceforge.net/DTD/sodipodi-0.dtd"
   xmlns="http://www.w3.org/2000/svg"
   xmlns:svg="http://www.w3.org/2000/svg">
  <defs
     id="defs6" />
  <sodipodi:namedview
     id="namedview6"
     pagecolor="#505050"
     bordercolor="#eeeeee"
     borderopacity="1"
     inkscape:showpageshadow="0"
     inkscape:pageopacity="0"
     inkscape:pagecheckerboard="0"
     inkscape:deskcolor="#505050" />
  <path
     d="m 70.993084,1.75 h 51.999996 l -6,46 -19.999996,8 -20,-8 z"
     stroke="#858585"
     stroke-linecap="round"
     stroke-linejoin="round"
     id="path1"
     style="stroke-width:3.2;stroke-linecap:square;stroke-linejoin:miter;stroke-dasharray:none" />
  <path
     d="m 85.046866,12.027029 h 23.893164 l -1.9911,25.427536 -9.955476,4.237922 -9.955491,-4.237922 -0.318575,-4.237923 m 4.30077,-8.475845 h 15.928772"
     stroke="#858585"
     stroke-linecap="round"
     stroke-linejoin="round"
     id="path2"
     style="stroke-width:3.90267;stroke-linecap:square;stroke-linejoin:miter;stroke-dasharray:none" />
  <path
     d="M 1.9930844,1.75 H 53.993084 l -6,46 -20,8 -19.9999996,-8 z"
     stroke="#858585"
     stroke-linecap="round"
     stroke-linejoin="round"
     id="path3"
     style="stroke-width:3.5;stroke-linejoin:miter;stroke-dasharray:none" />
  <path
     d="M 39.905412,11.160709 H 16.079435 l 0.992749,13.069496 H 38.912663 L 37.919914,37.2997 27.992423,41.656199 18.064933,37.2997 17.747253,32.943202"
     stroke="#858585"
     stroke-linecap="round"
     stroke-linejoin="round"
     id="path4"
     style="stroke-width:4.36725;stroke-linecap:square;stroke-linejoin:miter;stroke-dasharray:none" />
  <path
     d="m 57.993084,95.75 c -1.0609,0 -2.0783,0.421 -2.8284,1.172 -0.7502,0.75 -1.1716,1.767 -1.1716,2.828 0,1.061 0.4214,2.078 1.1716,2.828 0.7501,0.751 1.7675,1.172 2.8284,1.172 1.0609,0 2.0783,-0.421 2.8284,-1.172 0.7502,-0.75 1.1716,-1.767 1.1716,-2.828 0,-1.061 -0.4214,-2.078 -1.1716,-2.828 -0.7501,-0.751 -1.7675,-1.172 -2.8284,-1.172 z m 0,0 v -16 m 0,0 c 1.0609,0 2.0783,-0.4214 2.8284,-1.1716 0.7502,-0.7501 1.1716,-1.7675 1.1716,-2.8284 0,-1.0609 -0.4214,-2.0783 -1.1716,-2.8284 -0.7501,-0.7502 -1.7675,-1.1716 -2.8284,-1.1716 -1.0609,0 -2.0783,0.4214 -2.8284,1.1716 -0.7502,0.7501 -1.1716,1.7675 -1.1716,2.8284 0,1.0609 0.4214,2.0783 1.1716,2.8284 0.7501,0.7502 1.7675,1.1716 2.8284,1.1716 z m -4,-8 -4,-4 m 16,16 -4,-4 m 12,8 c 0,1.0609 -0.4214,2.0783 -1.1716,2.8284 -0.7501,0.7502 -1.7675,1.1716 -2.8284,1.1716 -1.0609,0 -2.0783,-0.4214 -2.8284,-1.1716 -0.7502,-0.7501 -1.1716,-1.7675 -1.1716,-2.8284 0,-1.0609 0.4214,-2.0783 1.1716,-2.8284 0.7501,-0.7502 1.7675,-1.1716 2.8284,-1.1716 1.0609,0 2.0783,0.4214 2.8284,1.1716 0.7502,0.7501 1.1716,1.7675 1.1716,2.8284 z"
     stroke="#858585"
     stroke-linecap="round"
     stroke-linejoin="round"
     id="path5" />
  <path
     d="m 64.233084,61.9901 23.52,23.52 c 1.1236,1.125 1.7547,2.65 1.7547,4.24 0,1.59 -0.6311,3.115 -1.7547,4.24 l -23.52,23.5199 c -1.125,1.124 -2.65,1.755 -4.24,1.755 -1.59,0 -3.115,-0.631 -4.24,-1.755 l -23.52,-23.5199 c -1.1236,-1.125 -1.7547,-2.65 -1.7547,-4.24 0,-1.59 0.6311,-3.115 1.7547,-4.24 l 23.52,-23.52 c 1.125,-1.1236 2.65,-1.7547 4.24,-1.7547 1.59,0 3.115,0.6311 4.24,1.7547 z"
     stroke="#858585"
     stroke-linecap="round"
     stroke-linejoin="round"
     id="path6"
     style="stroke-width:2.9;stroke-linecap:square;stroke-linejoin:miter;stroke-dasharray:none;paint-order:markers stroke fill" />
</svg>
