<svg width="25" height="24" viewBox="0 0 25 24" fill="none" xmlns="http://www.w3.org/2000/svg">
<path d="M19.77 5.33C18.44 4.71 17 4.26 15.5 4C15.4736 4.00038 15.4485 4.01116 15.43 4.03C15.25 4.36 15.04 4.79 14.9 5.12C13.309 4.88015 11.691 4.88015 10.1 5.12C9.96 4.78 9.75 4.36 9.56 4.03C9.55 4.01 9.52 4 9.49 4C7.99 4.26 6.56 4.71 5.22 5.33C5.21 5.33 5.2 5.34 5.19 5.35C2.47 9.42 1.72 13.38 2.09 17.3C2.09 17.32 2.1 17.34 2.12 17.35C3.92 18.67 5.65 19.47 7.36 20C7.39 20.01 7.41999 20 7.43 19.98C7.83 19.43 8.19 18.85 8.5 18.24C8.52 18.2 8.5 18.16 8.46 18.15C7.89 17.93 7.35 17.67 6.82 17.37C6.78 17.35 6.77999 17.29 6.81 17.26C6.92 17.18 7.02999 17.09 7.14 17.01C7.16 16.99 7.19 16.99 7.21 17C10.65 18.57 14.36 18.57 17.76 17C17.78 16.99 17.81 16.99 17.83 17.01C17.94 17.1 18.05 17.18 18.16 17.27C18.2 17.3 18.2 17.36 18.15 17.38C17.63 17.69 17.08 17.94 16.51 18.16C16.47 18.17 16.46 18.22 16.47 18.25C16.79 18.86 17.15 19.44 17.54 19.99C17.57 20 17.6 20.01 17.63 20C19.35 19.47 21.08 18.67 22.88 17.35C22.9 17.34 22.91 17.32 22.91 17.3C23.35 12.77 22.18 8.84 19.81 5.35C19.8 5.34 19.79 5.33 19.77 5.33ZM9.02 14.91C7.99 14.91 7.13 13.96 7.13 12.79C7.13 11.62 7.97 10.67 9.02 10.67C10.08 10.67 10.92 11.63 10.91 12.79C10.91 13.96 10.07 14.91 9.02 14.91ZM15.99 14.91C14.96 14.91 14.1 13.96 14.1 12.79C14.1 11.62 14.94 10.67 15.99 10.67C17.05 10.67 17.89 11.63 17.88 12.79C17.88 13.96 17.05 14.91 15.99 14.91Z" fill="#252525"/>
</svg>
