<svg width="161" height="35" viewBox="0 0 161 35" fill="none" xmlns="http://www.w3.org/2000/svg">
<mask id="path-1-inside-1_60_508" fill="white">
<path d="M135.071 0.76103V6.19796H123.947V34.802H118.384V6.19829H107.028V0.76103H135.071ZM136.322 31.5593C136.714 31.5593 137.056 31.7073 137.347 32.0039C137.641 32.3002 137.787 32.6553 137.791 33.0688C137.79 33.3401 137.719 33.6059 137.584 33.8375C137.451 34.0656 137.266 34.2548 137.045 34.3874C136.827 34.5249 136.576 34.5965 136.322 34.5942C135.914 34.5942 135.568 34.4459 135.278 34.1496C134.988 33.853 134.844 33.4939 134.848 33.0688C134.844 32.6553 134.987 32.3003 135.278 32.0039C135.568 31.7073 135.914 31.5593 136.322 31.5593ZM26.0732 34.802L5.56268 8.02293V34.7881H0V0.746826H6.95287L32.8657 34.5473L32.866 6.19829L32.8638 0.76103H60.9067V6.19796H38.4284V14.9446H56.5057V20.3819H38.4284V29.365H60.9071V34.802H26.0732ZM78.7343 20.33L82.3798 25.0908L74.91 34.8423H67.6099L78.7343 20.33ZM74.91 0.775233L84.3216 13.0529L93.7036 0.812889L100.983 0.801328L87.9661 17.8074L101.004 34.8162H93.7036L67.6307 0.775233H74.91ZM145.815 20.2537H148.28V30.2291C148.277 31.1457 148.088 31.9296 147.719 32.5892C147.346 33.2482 146.829 33.7516 146.166 34.1067C145.506 34.4575 144.734 34.6371 143.855 34.6371C143.053 34.6371 142.333 34.4852 141.692 34.1886C141.051 33.892 140.543 33.4474 140.17 32.862C139.792 32.2771 139.608 31.5474 139.608 30.6737H142.077C142.081 31.0559 142.163 31.3872 142.321 31.6647C142.477 31.9386 142.705 32.1593 142.977 32.3002C143.26 32.4488 143.584 32.523 143.949 32.5228C144.346 32.5228 144.685 32.4369 144.96 32.2612C145.235 32.0894 145.446 31.832 145.593 31.4889C145.736 31.1494 145.812 30.7282 145.815 30.2288V20.2537ZM158.422 24.1547C158.362 23.5502 158.098 23.0779 157.638 22.7426C157.174 22.4031 156.575 22.2356 155.84 22.2356C155.324 22.2356 154.879 22.3175 154.51 22.4774C154.141 22.6412 153.854 22.8595 153.658 23.1367C153.463 23.4135 153.364 23.7296 153.357 24.0847C153.357 24.381 153.425 24.6386 153.556 24.853C153.693 25.0779 153.877 25.2663 154.095 25.4033C154.332 25.5595 154.585 25.6864 154.849 25.7815C155.128 25.8828 155.407 25.9687 155.686 26.0391L156.971 26.3708C157.488 26.4956 157.989 26.6631 158.467 26.8778C158.946 27.0885 159.379 27.3577 159.76 27.6814C160.141 28.0051 160.442 28.3952 160.664 28.8517C160.887 29.3082 161 29.8427 161 30.459C161 31.2898 160.797 32.0194 160.386 32.6513C159.975 33.2796 159.383 33.7711 158.607 34.1261C157.834 34.4773 156.899 34.6566 155.799 34.6566C154.736 34.6566 153.809 34.4849 153.029 34.1417C152.245 33.8024 151.634 33.3027 151.193 32.6473C150.752 31.992 150.515 31.1923 150.481 30.2522H152.924C152.957 30.7438 153.108 31.1533 153.364 31.485C153.624 31.8126 153.963 32.0544 154.378 32.2183C154.796 32.3785 155.264 32.4604 155.78 32.4604C156.319 32.4604 156.794 32.3745 157.205 32.2067C157.612 32.0389 157.932 31.805 158.162 31.5005C158.396 31.1999 158.513 30.8452 158.516 30.4395C158.513 30.0689 158.407 29.7607 158.203 29.5186C157.996 29.2768 157.709 29.074 157.344 28.9102C156.975 28.7464 156.545 28.598 156.055 28.4696L154.495 28.056C153.368 27.7554 152.475 27.2993 151.823 26.6865C151.167 26.0741 150.843 25.2629 150.843 24.2445C150.843 23.4098 151.061 22.6762 151.503 22.048C151.94 21.4204 152.539 20.9325 153.297 20.5853C154.058 20.2342 154.917 20.0625 155.874 20.0625C156.847 20.0625 157.698 20.2342 158.433 20.5853C159.168 20.9325 159.745 21.4161 160.163 22.0324C160.581 22.6491 160.8 23.355 160.812 24.1547H158.422Z"/>
</mask>
<path d="M135.071 0.76103V6.19796H123.947V34.802H118.384V6.19829H107.028V0.76103H135.071ZM136.322 31.5593C136.714 31.5593 137.056 31.7073 137.347 32.0039C137.641 32.3002 137.787 32.6553 137.791 33.0688C137.79 33.3401 137.719 33.6059 137.584 33.8375C137.451 34.0656 137.266 34.2548 137.045 34.3874C136.827 34.5249 136.576 34.5965 136.322 34.5942C135.914 34.5942 135.568 34.4459 135.278 34.1496C134.988 33.853 134.844 33.4939 134.848 33.0688C134.844 32.6553 134.987 32.3003 135.278 32.0039C135.568 31.7073 135.914 31.5593 136.322 31.5593ZM26.0732 34.802L5.56268 8.02293V34.7881H0V0.746826H6.95287L32.8657 34.5473L32.866 6.19829L32.8638 0.76103H60.9067V6.19796H38.4284V14.9446H56.5057V20.3819H38.4284V29.365H60.9071V34.802H26.0732ZM78.7343 20.33L82.3798 25.0908L74.91 34.8423H67.6099L78.7343 20.33ZM74.91 0.775233L84.3216 13.0529L93.7036 0.812889L100.983 0.801328L87.9661 17.8074L101.004 34.8162H93.7036L67.6307 0.775233H74.91ZM145.815 20.2537H148.28V30.2291C148.277 31.1457 148.088 31.9296 147.719 32.5892C147.346 33.2482 146.829 33.7516 146.166 34.1067C145.506 34.4575 144.734 34.6371 143.855 34.6371C143.053 34.6371 142.333 34.4852 141.692 34.1886C141.051 33.892 140.543 33.4474 140.17 32.862C139.792 32.2771 139.608 31.5474 139.608 30.6737H142.077C142.081 31.0559 142.163 31.3872 142.321 31.6647C142.477 31.9386 142.705 32.1593 142.977 32.3002C143.26 32.4488 143.584 32.523 143.949 32.5228C144.346 32.5228 144.685 32.4369 144.96 32.2612C145.235 32.0894 145.446 31.832 145.593 31.4889C145.736 31.1494 145.812 30.7282 145.815 30.2288V20.2537ZM158.422 24.1547C158.362 23.5502 158.098 23.0779 157.638 22.7426C157.174 22.4031 156.575 22.2356 155.84 22.2356C155.324 22.2356 154.879 22.3175 154.51 22.4774C154.141 22.6412 153.854 22.8595 153.658 23.1367C153.463 23.4135 153.364 23.7296 153.357 24.0847C153.357 24.381 153.425 24.6386 153.556 24.853C153.693 25.0779 153.877 25.2663 154.095 25.4033C154.332 25.5595 154.585 25.6864 154.849 25.7815C155.128 25.8828 155.407 25.9687 155.686 26.0391L156.971 26.3708C157.488 26.4956 157.989 26.6631 158.467 26.8778C158.946 27.0885 159.379 27.3577 159.76 27.6814C160.141 28.0051 160.442 28.3952 160.664 28.8517C160.887 29.3082 161 29.8427 161 30.459C161 31.2898 160.797 32.0194 160.386 32.6513C159.975 33.2796 159.383 33.7711 158.607 34.1261C157.834 34.4773 156.899 34.6566 155.799 34.6566C154.736 34.6566 153.809 34.4849 153.029 34.1417C152.245 33.8024 151.634 33.3027 151.193 32.6473C150.752 31.992 150.515 31.1923 150.481 30.2522H152.924C152.957 30.7438 153.108 31.1533 153.364 31.485C153.624 31.8126 153.963 32.0544 154.378 32.2183C154.796 32.3785 155.264 32.4604 155.78 32.4604C156.319 32.4604 156.794 32.3745 157.205 32.2067C157.612 32.0389 157.932 31.805 158.162 31.5005C158.396 31.1999 158.513 30.8452 158.516 30.4395C158.513 30.0689 158.407 29.7607 158.203 29.5186C157.996 29.2768 157.709 29.074 157.344 28.9102C156.975 28.7464 156.545 28.598 156.055 28.4696L154.495 28.056C153.368 27.7554 152.475 27.2993 151.823 26.6865C151.167 26.0741 150.843 25.2629 150.843 24.2445C150.843 23.4098 151.061 22.6762 151.503 22.048C151.94 21.4204 152.539 20.9325 153.297 20.5853C154.058 20.2342 154.917 20.0625 155.874 20.0625C156.847 20.0625 157.698 20.2342 158.433 20.5853C159.168 20.9325 159.745 21.4161 160.163 22.0324C160.581 22.6491 160.8 23.355 160.812 24.1547H158.422Z" stroke="#858585" stroke-width="2" mask="url(#path-1-inside-1_60_508)"/>
</svg>
