<svg width="22" height="22" viewBox="0 0 22 22" fill="none" xmlns="http://www.w3.org/2000/svg">
<path d="M9 19.568C5.571 20.725 2.714 19.568 1 16" stroke="#B5B5B5" stroke-width="1.5" stroke-linecap="round" stroke-linejoin="round"/>
<path d="M9 21V17.758C9 17.16 9.184 16.64 9.48 16.17C9.684 15.848 9.544 15.39 9.177 15.29C6.134 14.452 4 13.107 4 8.64503C4 7.48503 4.38 6.39503 5.048 5.44503C5.214 5.20903 5.298 5.09103 5.318 4.98503C5.338 4.87703 5.303 4.73803 5.233 4.45803C4.95 3.32203 4.969 2.11503 5.393 1.02803C5.393 1.02803 6.27 0.741027 8.267 1.98803C8.723 2.27303 8.951 2.41603 9.152 2.44803C9.353 2.48003 9.621 2.41303 10.157 2.27903C10.9234 2.08902 11.7104 1.9953 12.5 2.00003C13.2895 1.99666 14.0765 2.0907 14.843 2.28003C15.379 2.41403 15.648 2.48003 15.849 2.44903C16.049 2.41703 16.277 2.27403 16.733 1.98903C18.73 0.742028 19.607 1.02903 19.607 1.02903C20.031 2.11603 20.05 3.32303 19.767 4.45903C19.697 4.73903 19.663 4.87903 19.683 4.98503C19.703 5.09103 19.786 5.21003 19.952 5.44603C20.62 6.39603 21 7.48603 21 8.64603C21 13.108 18.866 14.453 15.823 15.289C15.456 15.39 15.316 15.848 15.52 16.169C15.816 16.639 16 17.159 16 17.758V21" stroke="#B5B5B5" stroke-width="1.5" stroke-linecap="round" stroke-linejoin="round"/>
</svg>
