<svg width="186" height="37" viewBox="0 0 186 37" fill="none" xmlns="http://www.w3.org/2000/svg">
<path d="M11.3749 8.58797C8.08895 5.0704 11.5392 2.31823 13.6751 1.38184C11.7035 4.11772 13.2917 6.4302 14.3323 7.24445C16.6982 9.68721 13.6751 12.415 11.8678 13.4735C14.2337 11.8124 12.525 9.52436 11.3749 8.58797Z" fill="#C6C6C6"/>
<path d="M14.904 5.14724C12.2752 2.63469 15.0354 0.66885 16.7441 0C15.1669 1.95421 16.4375 3.60597 17.2699 4.18758C19.1626 5.93241 16.7441 7.8808 15.2983 8.63689C17.191 7.45041 15.8241 5.81609 14.904 5.14724Z" fill="#C6C6C6"/>
<path d="M1.29715 22.9976V17.8598C1.29715 16.8127 1.61363 16.0053 2.2466 15.4374C2.97764 14.763 4.14998 14.4258 5.76361 14.4258V16.0629C4.72054 16.0629 4.02962 16.2582 3.69085 16.6486C3.40557 16.9769 3.26293 17.5626 3.26293 18.4055V22.9976C3.26293 23.601 3.14703 24.1467 2.91524 24.6347C2.74585 24.9719 2.52297 25.3047 2.2466 25.633C2.53189 25.9702 2.75477 26.2985 2.91524 26.6179C3.14703 27.106 3.26293 27.6473 3.26293 28.2418V33.0202C3.26293 33.8898 3.40557 34.4754 3.69085 34.7771C4.03854 35.1675 4.72946 35.3628 5.76361 35.3628V36.9999C4.14998 36.9999 2.97764 36.6627 2.2466 35.9883C1.61363 35.4204 1.29715 34.613 1.29715 33.5659V28.2418C1.29715 27.6739 1.07873 27.0616 0.641887 26.405C0.43684 26.1033 0.222877 25.846 0 25.633C0.45467 25.1982 0.820189 24.6613 1.09656 24.0225C1.23028 23.703 1.29715 23.3614 1.29715 22.9976Z" fill="white"/>
<path d="M25.5997 22.9976V17.8598C25.5997 16.8127 25.2832 16.0053 24.6502 15.4374C23.9192 14.763 22.7469 14.4258 21.1332 14.4258V16.0629C22.1763 16.0629 22.8672 16.2582 23.206 16.6486C23.4913 16.9769 23.6339 17.5626 23.6339 18.4055V22.9976C23.6339 23.601 23.7498 24.1467 23.9816 24.6347C24.151 24.9719 24.3739 25.3047 24.6502 25.633C24.365 25.9702 24.1421 26.2985 23.9816 26.6179C23.7498 27.106 23.6339 27.6473 23.6339 28.2418V33.0202C23.6339 33.8898 23.4913 34.4754 23.206 34.7771C22.8583 35.1675 22.1674 35.3628 21.1332 35.3628V36.9999C22.7469 36.9999 23.9192 36.6627 24.6502 35.9883C25.2832 35.4204 25.5997 34.613 25.5997 33.5659V28.2418C25.5997 27.6739 25.8181 27.0616 26.255 26.405C26.46 26.1033 26.674 25.846 26.8969 25.633C26.4422 25.1982 26.0767 24.6613 25.8003 24.0225C25.6666 23.703 25.5997 23.3614 25.5997 22.9976Z" fill="white"/>
<line x1="8.16516" y1="36.2" x2="18.7318" y2="36.2" stroke="white" stroke-width="1.6"/>
<ellipse cx="13.3008" cy="16.5828" rx="6.3913" ry="1.03643" fill="#ECB033"/>
<path d="M27.2391 21.3442V21.1608L27.414 21.1057C27.9224 20.9456 28.5241 20.8687 29.214 20.8687C30.1547 20.8687 30.9068 21.0674 31.4261 21.508C31.9532 21.9553 32.1978 22.615 32.1978 23.4385V28.1588C32.1978 28.9728 31.9525 29.6247 31.4248 30.0663C30.9056 30.5008 30.154 30.6965 29.214 30.6965C28.6065 30.6965 27.9999 30.6185 27.3944 30.4631L27.2066 30.4149V30.221V29.1416V28.7911L27.538 28.9052C28.0063 29.0665 28.5422 29.1493 29.1489 29.1493C29.7666 29.1493 30.1193 29.0459 30.2861 28.9051C30.4387 28.7669 30.5424 28.5227 30.5424 28.1105V23.4707C30.5424 23.0695 30.4389 22.8292 30.2839 22.6904L30.2834 22.69C30.1171 22.5402 29.7756 22.4319 29.1814 22.4319C28.5931 22.4319 28.051 22.4995 27.5539 22.6328L27.2391 22.7172V22.3914V21.3442Z" fill="white" stroke="#F3F3F3" stroke-width="0.5"/>
<path d="M49.1546 16.79C50.148 16.79 50.9913 16.9233 51.6846 17.19C52.3846 17.45 53.0246 17.82 53.6046 18.3L51.9946 20.24C51.6146 19.9267 51.1946 19.68 50.7346 19.5C50.2746 19.3133 49.7746 19.22 49.2346 19.22C48.6546 19.22 48.1246 19.3867 47.6446 19.72C47.1646 20.0467 46.7813 20.5667 46.4946 21.28C46.208 21.9867 46.0646 22.9067 46.0646 24.04C46.0646 25.1533 46.2013 26.0633 46.4746 26.77C46.7546 27.47 47.138 27.9867 47.6246 28.32C48.1113 28.6467 48.668 28.81 49.2946 28.81C49.988 28.81 50.5646 28.68 51.0246 28.42C51.4846 28.16 51.908 27.8767 52.2946 27.57L53.7846 29.47C53.2646 29.9833 52.6246 30.4233 51.8646 30.79C51.1046 31.1567 50.188 31.34 49.1146 31.34C47.8613 31.34 46.748 31.0633 45.7746 30.51C44.808 29.95 44.048 29.13 43.4946 28.05C42.948 26.9633 42.6746 25.6267 42.6746 24.04C42.6746 22.4933 42.958 21.18 43.5246 20.1C44.098 19.02 44.8746 18.2 45.8546 17.64C46.8346 17.0733 47.9346 16.79 49.1546 16.79ZM59.9868 20.03C61.0802 20.03 62.0102 20.2633 62.7768 20.73C63.5435 21.1967 64.1302 21.8533 64.5368 22.7C64.9435 23.54 65.1468 24.5267 65.1468 25.66C65.1468 26.84 64.9402 27.8567 64.5268 28.71C64.1202 29.5567 63.5335 30.2067 62.7668 30.66C62.0001 31.1133 61.0735 31.34 59.9868 31.34C58.9068 31.34 57.9801 31.1167 57.2068 30.67C56.4401 30.2233 55.8501 29.5767 55.4368 28.73C55.0301 27.8833 54.8268 26.8667 54.8268 25.68C54.8268 24.5533 55.0301 23.5667 55.4368 22.72C55.8501 21.8733 56.4401 21.2133 57.2068 20.74C57.9801 20.2667 58.9068 20.03 59.9868 20.03ZM59.9868 22.36C59.3401 22.36 58.8601 22.6267 58.5468 23.16C58.2402 23.6867 58.0868 24.5267 58.0868 25.68C58.0868 26.8533 58.2402 27.7033 58.5468 28.23C58.8601 28.7567 59.3401 29.02 59.9868 29.02C60.6335 29.02 61.1102 28.7567 61.4168 28.23C61.7301 27.7033 61.8868 26.8467 61.8868 25.66C61.8868 24.5133 61.7301 23.6767 61.4168 23.15C61.1102 22.6233 60.6335 22.36 59.9868 22.36ZM73.419 15.83L76.579 16.16V31H73.779L73.619 29.83C73.3257 30.2433 72.9357 30.6 72.449 30.9C71.9623 31.1933 71.3723 31.34 70.679 31.34C69.799 31.34 69.069 31.1033 68.489 30.63C67.9157 30.1567 67.4857 29.4967 67.199 28.65C66.919 27.7967 66.779 26.8 66.779 25.66C66.779 24.5667 66.949 23.5967 67.289 22.75C67.629 21.9033 68.1157 21.24 68.749 20.76C69.3823 20.2733 70.1357 20.03 71.009 20.03C71.4823 20.03 71.9223 20.1133 72.329 20.28C72.7357 20.4467 73.099 20.69 73.419 21.01V15.83ZM71.859 22.34C71.3123 22.34 70.8723 22.6 70.539 23.12C70.2057 23.6333 70.039 24.4867 70.039 25.68C70.039 26.5533 70.109 27.2333 70.249 27.72C70.389 28.2 70.5823 28.5367 70.829 28.73C71.0757 28.9233 71.359 29.02 71.679 29.02C72.0323 29.02 72.3523 28.91 72.639 28.69C72.9323 28.47 73.1923 28.17 73.419 27.79V23.21C73.199 22.9367 72.9657 22.7233 72.719 22.57C72.4723 22.4167 72.1857 22.34 71.859 22.34ZM85.8612 20.38V28.84H88.5612V31H79.6912V28.84H82.7012V22.54H79.7912V20.38H85.8612ZM83.9512 14.82C84.4979 14.82 84.9445 14.99 85.2912 15.33C85.6379 15.67 85.8112 16.0933 85.8112 16.6C85.8112 17.1067 85.6379 17.5333 85.2912 17.88C84.9445 18.22 84.4979 18.39 83.9512 18.39C83.3979 18.39 82.9445 18.22 82.5912 17.88C82.2445 17.5333 82.0712 17.1067 82.0712 16.6C82.0712 16.0933 82.2445 15.67 82.5912 15.33C82.9445 14.99 83.3979 14.82 83.9512 14.82ZM91.3634 31V20.38H94.1234L94.3434 21.61C94.8167 21.0767 95.3167 20.68 95.8434 20.42C96.37 20.16 96.97 20.03 97.6434 20.03C98.55 20.03 99.2634 20.3067 99.7834 20.86C100.303 21.4133 100.563 22.1933 100.563 23.2V31H97.4034V24.11C97.4034 23.6767 97.3734 23.3333 97.3134 23.08C97.2534 22.82 97.1467 22.6367 96.9934 22.53C96.8467 22.4167 96.6434 22.36 96.3834 22.36C96.1634 22.36 95.9467 22.41 95.7334 22.51C95.5267 22.6033 95.3234 22.74 95.1234 22.92C94.9234 23.1 94.7234 23.3167 94.5234 23.57V31H91.3634ZM112.786 18.68L113.526 21C113.152 21.1467 112.716 21.2533 112.216 21.32C111.716 21.3867 111.132 21.42 110.466 21.42C111.132 21.7067 111.639 22.0633 111.986 22.49C112.339 22.91 112.516 23.4633 112.516 24.15C112.516 24.8367 112.332 25.45 111.966 25.99C111.599 26.5233 111.079 26.9433 110.406 27.25C109.732 27.5567 108.936 27.71 108.016 27.71C107.789 27.71 107.576 27.7 107.376 27.68C107.176 27.66 106.979 27.63 106.786 27.59C106.672 27.65 106.586 27.7367 106.526 27.85C106.466 27.9633 106.436 28.08 106.436 28.2C106.436 28.3667 106.502 28.5167 106.636 28.65C106.776 28.7833 107.099 28.85 107.606 28.85H109.346C110.172 28.85 110.886 28.9833 111.486 29.25C112.092 29.5167 112.562 29.88 112.896 30.34C113.229 30.8 113.396 31.3267 113.396 31.92C113.396 33.0067 112.919 33.8633 111.966 34.49C111.012 35.1167 109.596 35.43 107.716 35.43C106.356 35.43 105.302 35.29 104.556 35.01C103.816 34.7367 103.299 34.3433 103.006 33.83C102.719 33.3233 102.576 32.72 102.576 32.02H105.376C105.376 32.3267 105.436 32.5767 105.556 32.77C105.682 32.97 105.919 33.1167 106.266 33.21C106.619 33.3033 107.129 33.35 107.796 33.35C108.469 33.35 108.982 33.2967 109.336 33.19C109.689 33.0833 109.929 32.9367 110.056 32.75C110.189 32.57 110.256 32.3667 110.256 32.14C110.256 31.8267 110.132 31.5733 109.886 31.38C109.639 31.1867 109.249 31.09 108.716 31.09H107.026C105.879 31.09 105.046 30.88 104.526 30.46C104.006 30.0333 103.746 29.5367 103.746 28.97C103.746 28.5767 103.849 28.2033 104.056 27.85C104.269 27.4967 104.566 27.2 104.946 26.96C104.266 26.6 103.779 26.1767 103.486 25.69C103.192 25.1967 103.046 24.6067 103.046 23.92C103.046 23.12 103.249 22.4333 103.656 21.86C104.062 21.28 104.622 20.8333 105.336 20.52C106.056 20.2067 106.876 20.05 107.796 20.05C108.589 20.0633 109.279 20.01 109.866 19.89C110.452 19.7633 110.979 19.5933 111.446 19.38C111.912 19.16 112.359 18.9267 112.786 18.68ZM107.876 22.1C107.376 22.1 106.979 22.26 106.686 22.58C106.392 22.8933 106.246 23.3267 106.246 23.88C106.246 24.4667 106.396 24.9167 106.696 25.23C106.996 25.5433 107.389 25.7 107.876 25.7C108.402 25.7 108.802 25.5433 109.076 25.23C109.356 24.9167 109.496 24.4533 109.496 23.84C109.496 23.2467 109.359 22.81 109.086 22.53C108.812 22.2433 108.409 22.1 107.876 22.1Z" fill="white"/>
<path d="M127.8 31V17.14H131.08V28.41H137.09L136.75 31H127.8ZM148.272 27.94C148.272 28.34 148.325 28.63 148.432 28.81C148.545 28.99 148.725 29.1267 148.972 29.22L148.322 31.3C147.695 31.24 147.165 31.1033 146.732 30.89C146.305 30.67 145.969 30.34 145.722 29.9C145.315 30.3867 144.795 30.75 144.162 30.99C143.529 31.2233 142.882 31.34 142.222 31.34C141.129 31.34 140.255 31.03 139.602 30.41C138.955 29.7833 138.632 28.98 138.632 28C138.632 26.8467 139.082 25.9567 139.982 25.33C140.889 24.7033 142.162 24.39 143.802 24.39H145.232V23.99C145.232 23.4367 145.052 23.0267 144.692 22.76C144.339 22.4933 143.819 22.36 143.132 22.36C142.792 22.36 142.355 22.41 141.822 22.51C141.289 22.6033 140.755 22.74 140.222 22.92L139.492 20.82C140.179 20.56 140.892 20.3633 141.632 20.23C142.379 20.0967 143.045 20.03 143.632 20.03C145.212 20.03 146.379 20.3533 147.132 21C147.892 21.64 148.272 22.5667 148.272 23.78V27.94ZM143.312 29.08C143.652 29.08 144.009 28.98 144.382 28.78C144.755 28.5733 145.039 28.2833 145.232 27.91V26.19H144.452C143.572 26.19 142.925 26.3267 142.512 26.6C142.099 26.8667 141.892 27.26 141.892 27.78C141.892 28.1867 142.015 28.5067 142.262 28.74C142.515 28.9667 142.865 29.08 143.312 29.08ZM160.884 30.38C160.471 30.6467 159.971 30.8733 159.384 31.06C158.798 31.2467 158.138 31.34 157.404 31.34C156.018 31.34 154.988 30.9867 154.314 30.28C153.641 29.5667 153.304 28.6 153.304 27.38V22.56H151.074V20.38H153.304V18.08L156.464 17.7V20.38H159.884L159.574 22.56H156.464V27.38C156.464 27.9067 156.584 28.2833 156.824 28.51C157.064 28.7367 157.448 28.85 157.974 28.85C158.348 28.85 158.688 28.8067 158.994 28.72C159.308 28.6267 159.588 28.51 159.834 28.37L160.884 30.38ZM172.257 27.94C172.257 28.34 172.31 28.63 172.417 28.81C172.53 28.99 172.71 29.1267 172.957 29.22L172.307 31.3C171.68 31.24 171.15 31.1033 170.717 30.89C170.29 30.67 169.953 30.34 169.707 29.9C169.3 30.3867 168.78 30.75 168.147 30.99C167.513 31.2233 166.867 31.34 166.207 31.34C165.113 31.34 164.24 31.03 163.587 30.41C162.94 29.7833 162.617 28.98 162.617 28C162.617 26.8467 163.067 25.9567 163.967 25.33C164.873 24.7033 166.147 24.39 167.787 24.39H169.217V23.99C169.217 23.4367 169.037 23.0267 168.677 22.76C168.323 22.4933 167.803 22.36 167.117 22.36C166.777 22.36 166.34 22.41 165.807 22.51C165.273 22.6033 164.74 22.74 164.207 22.92L163.477 20.82C164.163 20.56 164.877 20.3633 165.617 20.23C166.363 20.0967 167.03 20.03 167.617 20.03C169.197 20.03 170.363 20.3533 171.117 21C171.877 21.64 172.257 22.5667 172.257 23.78V27.94ZM167.297 29.08C167.637 29.08 167.993 28.98 168.367 28.78C168.74 28.5733 169.023 28.2833 169.217 27.91V26.19H168.437C167.557 26.19 166.91 26.3267 166.497 26.6C166.083 26.8667 165.877 27.26 165.877 27.78C165.877 28.1867 166 28.5067 166.247 28.74C166.5 28.9667 166.85 29.08 167.297 29.08ZM183.159 20.03C183.665 20.03 184.082 20.1367 184.409 20.35C184.735 20.5633 184.979 20.9 185.139 21.36C185.299 21.8133 185.379 22.4067 185.379 23.14V31H182.669V23.5C182.669 23.1267 182.632 22.8633 182.559 22.71C182.492 22.5567 182.352 22.48 182.139 22.48C181.972 22.48 181.799 22.53 181.619 22.63C181.445 22.7233 181.252 22.9033 181.039 23.17V31H178.819V23.5C178.819 23.1267 178.782 22.8633 178.709 22.71C178.642 22.5567 178.502 22.48 178.289 22.48C178.122 22.48 177.949 22.53 177.769 22.63C177.595 22.7233 177.402 22.9033 177.189 23.17V31H174.439V20.38H176.759L176.969 21.41C177.302 20.9567 177.639 20.6133 177.979 20.38C178.319 20.1467 178.722 20.03 179.189 20.03C179.589 20.03 179.929 20.1333 180.209 20.34C180.495 20.54 180.699 20.8567 180.819 21.29C181.139 20.9167 181.492 20.6133 181.879 20.38C182.265 20.1467 182.692 20.03 183.159 20.03Z" fill="#ECB033"/>
</svg>
