<svg width="183" height="37" viewBox="0 0 183 37" fill="none" xmlns="http://www.w3.org/2000/svg">
<path d="M11.3749 8.58803C8.08895 5.07046 11.5392 2.31829 13.6751 1.3819C11.7035 4.11778 13.2917 6.43026 14.3323 7.24451C16.6982 9.68727 13.6751 12.415 11.8678 13.4735C14.2337 11.8125 12.525 9.52442 11.3749 8.58803Z" fill="#C6C6C6"/>
<path d="M14.904 5.14724C12.2752 2.63469 15.0354 0.66885 16.7441 0C15.1669 1.95421 16.4375 3.60597 17.2699 4.18758C19.1626 5.93241 16.7441 7.8808 15.2983 8.63689C17.191 7.45041 15.8241 5.81609 14.904 5.14724Z" fill="#C6C6C6"/>
<path d="M1.29715 22.9976V17.8599C1.29715 16.8128 1.61363 16.0053 2.2466 15.4374C2.97764 14.763 4.14998 14.4258 5.76361 14.4258V16.063C4.72054 16.063 4.02962 16.2582 3.69085 16.6486C3.40557 16.977 3.26293 17.5626 3.26293 18.4056V22.9976C3.26293 23.601 3.14703 24.1467 2.91524 24.6348C2.74585 24.972 2.52297 25.3047 2.2466 25.6331C2.53189 25.9702 2.75477 26.2986 2.91524 26.618C3.14703 27.1061 3.26293 27.6473 3.26293 28.2419V33.0202C3.26293 33.8898 3.40557 34.4755 3.69085 34.7772C4.03854 35.1676 4.72946 35.3628 5.76361 35.3628V37C4.14998 37 2.97764 36.6628 2.2466 35.9884C1.61363 35.4205 1.29715 34.613 1.29715 33.5659V28.2419C1.29715 27.674 1.07873 27.0617 0.641887 26.405C0.43684 26.1033 0.222877 25.846 0 25.6331C0.45467 25.1983 0.820189 24.6614 1.09656 24.0225C1.23028 23.7031 1.29715 23.3614 1.29715 22.9976Z" fill="white"/>
<path d="M25.5997 22.9976V17.8599C25.5997 16.8128 25.2832 16.0053 24.6502 15.4374C23.9192 14.763 22.7469 14.4258 21.1332 14.4258V16.063C22.1763 16.063 22.8672 16.2582 23.206 16.6486C23.4913 16.977 23.6339 17.5626 23.6339 18.4056V22.9976C23.6339 23.601 23.7498 24.1467 23.9816 24.6348C24.151 24.972 24.3739 25.3047 24.6502 25.6331C24.365 25.9702 24.1421 26.2986 23.9816 26.618C23.7498 27.1061 23.6339 27.6473 23.6339 28.2419V33.0202C23.6339 33.8898 23.4913 34.4755 23.206 34.7772C22.8583 35.1676 22.1674 35.3628 21.1332 35.3628V37C22.7469 37 23.9192 36.6628 24.6502 35.9884C25.2832 35.4205 25.5997 34.613 25.5997 33.5659V28.2419C25.5997 27.674 25.8181 27.0617 26.255 26.405C26.46 26.1033 26.674 25.846 26.8969 25.6331C26.4422 25.1983 26.0767 24.6614 25.8003 24.0225C25.6666 23.7031 25.5997 23.3614 25.5997 22.9976Z" fill="white"/>
<line x1="8.16516" y1="36.2" x2="18.7318" y2="36.2" stroke="white" stroke-width="1.6"/>
<ellipse cx="13.3008" cy="16.5828" rx="6.3913" ry="1.03643" fill="#ECB016"/>
<path d="M27.2391 21.3444V21.161L27.414 21.1059C27.9224 20.9458 28.5241 20.8688 29.214 20.8688C30.1547 20.8688 30.9068 21.0675 31.4261 21.5082C31.9532 21.9555 32.1978 22.6152 32.1978 23.4387V28.159C32.1978 28.973 31.9525 29.6249 31.4248 30.0665C30.9056 30.5009 30.154 30.6967 29.214 30.6967C28.6065 30.6967 27.9999 30.6187 27.3944 30.4633L27.2066 30.4151V30.2211V29.1417V28.7912L27.538 28.9054C28.0063 29.0666 28.5422 29.1495 29.1489 29.1495C29.7666 29.1495 30.1193 29.0461 30.2861 28.9052C30.4387 28.7671 30.5424 28.5229 30.5424 28.1107V23.4709C30.5424 23.0697 30.4389 22.8294 30.2839 22.6905L30.2834 22.6901C30.1171 22.5404 29.7756 22.4321 29.1814 22.4321C28.5931 22.4321 28.051 22.4997 27.5539 22.633L27.2391 22.7174V22.3915V21.3444Z" fill="white" stroke="#F3F3F3" stroke-width="0.5"/>
<path d="M49.4399 31.1953C45.0194 31.1953 42.8091 28.8125 42.8091 24.0469C42.8091 21.7878 43.3657 20.0397 44.479 18.8027C45.5923 17.5592 47.1678 16.9375 49.2056 16.9375C50.1235 16.9375 50.9373 17.0872 51.647 17.3867C52.3566 17.6797 52.8937 18.0996 53.2583 18.6465L51.813 20.541C51.52 20.1764 51.1457 19.8965 50.6899 19.7012C50.2407 19.4993 49.7524 19.3984 49.2251 19.3984C48.1053 19.3984 47.2069 19.7956 46.5298 20.5898C45.8592 21.3776 45.5239 22.4974 45.5239 23.9492C45.5239 27.1393 46.9399 28.7344 49.772 28.7344C50.716 28.7344 51.647 28.5391 52.5649 28.1484L53.0142 30.5312C51.8813 30.974 50.6899 31.1953 49.4399 31.1953ZM59.7134 31.1953C58.2225 31.1953 57.0669 30.7266 56.2466 29.7891C55.4263 28.8516 55.0161 27.5299 55.0161 25.8242C55.0161 24.112 55.4263 22.7904 56.2466 21.8594C57.0669 20.9219 58.2225 20.4531 59.7134 20.4531C61.2043 20.4531 62.3599 20.9219 63.1802 21.8594C64.0005 22.7904 64.4106 24.112 64.4106 25.8242C64.4106 27.5299 64.0005 28.8516 63.1802 29.7891C62.3599 30.7266 61.2043 31.1953 59.7134 31.1953ZM59.7134 28.6855C60.3514 28.6855 60.8429 28.4382 61.188 27.9434C61.533 27.4421 61.7056 26.7357 61.7056 25.8242C61.7056 24.9062 61.533 24.1999 61.188 23.7051C60.8429 23.2103 60.3514 22.9629 59.7134 22.9629C59.0819 22.9629 58.5903 23.2103 58.2388 23.7051C57.8937 24.1999 57.7212 24.9062 57.7212 25.8242C57.7212 26.7357 57.8937 27.4421 58.2388 27.9434C58.5903 28.4382 59.0819 28.6855 59.7134 28.6855ZM70.4067 31.1953C69.1242 31.1953 68.1248 30.7331 67.4087 29.8086C66.6991 28.8841 66.3442 27.5592 66.3442 25.834C66.3442 24.1217 66.6991 22.7969 67.4087 21.8594C68.1248 20.9219 69.1307 20.4531 70.4263 20.4531C71.1815 20.4531 71.7544 20.6257 72.145 20.9707C72.5422 21.3092 72.7993 21.8268 72.9165 22.5234H73.7759L73.1704 25.834C73.1704 24.8314 73.0011 24.099 72.6626 23.6367C72.3306 23.1745 71.826 22.9434 71.1489 22.9434C70.4784 22.9434 69.9608 23.1973 69.5962 23.7051C69.2316 24.2064 69.0493 24.916 69.0493 25.834C69.0493 26.7845 69.2251 27.5007 69.5767 27.9824C69.9347 28.4642 70.4588 28.7051 71.1489 28.7051C71.9041 28.7051 72.4282 28.4772 72.7212 28.0215C73.0207 27.5658 73.1704 26.8366 73.1704 25.834L73.8735 29.125H72.9556C72.8514 29.8151 72.5812 30.3327 72.145 30.6777C71.7088 31.0228 71.1294 31.1953 70.4067 31.1953ZM73.5513 31.0977L73.1704 29.0469V16.3516H75.8169V31L73.5513 31.0977ZM82.5161 31V21.2344H85.1528V31H82.5161ZM78.688 31V28.5586H82.7114V31H78.688ZM84.9575 31V28.5586H88.2192V31H84.9575ZM79.2739 23.0898V20.6484H85.1528V23.0898H79.2739ZM83.7173 19.252C83.216 19.252 82.8091 19.0957 82.4966 18.7832C82.1841 18.4707 82.0278 18.0638 82.0278 17.5625C82.0278 17.0612 82.1841 16.6543 82.4966 16.3418C82.8091 16.0293 83.216 15.873 83.7173 15.873C84.2186 15.873 84.6255 16.0293 84.938 16.3418C85.2505 16.6543 85.4067 17.0612 85.4067 17.5625C85.4067 18.0638 85.2505 18.4707 84.938 18.7832C84.6255 19.0957 84.2186 19.252 83.7173 19.252ZM96.6079 31V24.916C96.6079 24.291 96.4777 23.8092 96.2173 23.4707C95.9634 23.1322 95.5988 22.9629 95.1235 22.9629C93.7954 22.9629 93.1313 23.9199 93.1313 25.834L92.5259 22.5234H93.3853C93.4829 21.8268 93.7205 21.3092 94.0981 20.9707C94.4757 20.6257 95.0487 20.4531 95.8169 20.4531C96.9106 20.4531 97.757 20.7852 98.356 21.4492C98.9549 22.1133 99.2544 23.0508 99.2544 24.2617V31H96.6079ZM90.4849 31V20.6484H92.8481L93.1313 22.8359V31H90.4849ZM102.506 35.668L102.409 33.3633L105.729 33.2656C106.64 33.2396 107.301 32.9857 107.711 32.5039C108.122 32.0286 108.327 31.3255 108.327 30.3945V22.8359L108.522 20.6484H110.973V30.082C110.973 31.9245 110.54 33.2819 109.674 34.1543C108.808 35.0332 107.428 35.5052 105.534 35.5703L102.506 35.668ZM105.563 31.1953C104.28 31.1953 103.281 30.7331 102.565 29.8086C101.855 28.8841 101.5 27.5592 101.5 25.834C101.5 24.1217 101.855 22.7969 102.565 21.8594C103.281 20.9219 104.287 20.4531 105.583 20.4531C106.37 20.4531 106.966 20.6257 107.37 20.9707C107.78 21.3092 108.047 21.8268 108.17 22.5234H108.932L108.327 25.834C108.327 24.8314 108.157 24.099 107.819 23.6367C107.487 23.1745 106.982 22.9434 106.305 22.9434C105.635 22.9434 105.117 23.1973 104.752 23.7051C104.388 24.2064 104.206 24.916 104.206 25.834C104.206 26.7845 104.381 27.5007 104.733 27.9824C105.091 28.4642 105.615 28.7051 106.305 28.7051C107.06 28.7051 107.584 28.4772 107.877 28.0215C108.177 27.5658 108.327 26.8366 108.327 25.834L109.03 29.125H108.112C108.008 29.8151 107.737 30.3327 107.301 30.6777C106.865 31.0228 106.286 31.1953 105.563 31.1953Z" fill="white"/>
<path d="M125.563 31V17.1328H128.141V31H125.563ZM125.563 31V28.627H135.075V31H125.563ZM143.649 31.0977L143.424 28.0312L143.385 26.6836V24.6621C143.385 24.1087 143.148 23.7051 142.672 23.4512C142.204 23.1908 141.504 23.0475 140.573 23.0215L137.926 22.9531L138.122 20.5508L140.377 20.5801C142.252 20.6061 143.646 20.9772 144.557 21.6934C145.469 22.403 145.924 23.4414 145.924 24.8086V28.6367L147.36 28.8516V31L143.649 31.0977ZM140.143 31.1953C139.043 31.1953 138.187 30.9251 137.575 30.3848C136.963 29.8444 136.657 29.0762 136.657 28.0801C136.657 26.9212 137.057 26.0326 137.858 25.4141C138.659 24.7956 139.795 24.4863 141.266 24.4863C141.833 24.4863 142.321 24.5156 142.731 24.5742C143.148 24.6328 143.568 24.724 143.991 24.8477L143.561 26.9082C143.144 26.8105 142.77 26.7552 142.438 26.7422C142.106 26.7227 141.758 26.7129 141.393 26.7129C140.026 26.7129 139.342 27.1035 139.342 27.8848C139.342 28.2363 139.466 28.5065 139.713 28.6953C139.961 28.8776 140.322 28.9688 140.797 28.9688C141.37 28.9688 141.849 28.8613 142.233 28.6465C142.617 28.4316 142.903 28.1582 143.092 27.8262C143.288 27.4941 143.385 27.1523 143.385 26.8008V26.1562L143.756 28.8125H142.926L143.268 28.5C143.249 29.099 143.112 29.6003 142.858 30.0039C142.604 30.401 142.246 30.7005 141.784 30.9023C141.328 31.0977 140.781 31.1953 140.143 31.1953ZM155.661 31.1953C153.877 31.1953 152.588 30.8372 151.793 30.1211C150.999 29.4049 150.602 28.2591 150.602 26.6836V25.3359H153.239V26.4297C153.239 27.2174 153.441 27.7904 153.844 28.1484C154.254 28.5065 154.925 28.6855 155.856 28.6855C156.155 28.6855 156.474 28.6693 156.813 28.6367C157.158 28.5977 157.549 28.5488 157.985 28.4902L158.219 30.9609C157.79 31.0391 157.37 31.0977 156.959 31.1367C156.556 31.1758 156.123 31.1953 155.661 31.1953ZM150.602 25.9512V17.5234H153.239V25.9512H150.602ZM148.122 23.0801V20.6484H157.829V23.0801H148.122ZM167.086 31.0977L166.862 28.0312L166.823 26.6836V24.6621C166.823 24.1087 166.585 23.7051 166.11 23.4512C165.641 23.1908 164.941 23.0475 164.01 23.0215L161.364 22.9531L161.559 20.5508L163.815 20.5801C165.69 20.6061 167.083 20.9772 167.995 21.6934C168.906 22.403 169.362 23.4414 169.362 24.8086V28.6367L170.797 28.8516V31L167.086 31.0977ZM163.581 31.1953C162.48 31.1953 161.624 30.9251 161.012 30.3848C160.4 29.8444 160.094 29.0762 160.094 28.0801C160.094 26.9212 160.495 26.0326 161.295 25.4141C162.096 24.7956 163.232 24.4863 164.704 24.4863C165.27 24.4863 165.758 24.5156 166.168 24.5742C166.585 24.6328 167.005 24.724 167.428 24.8477L166.999 26.9082C166.582 26.8105 166.208 26.7552 165.875 26.7422C165.543 26.7227 165.195 26.7129 164.831 26.7129C163.463 26.7129 162.78 27.1035 162.78 27.8848C162.78 28.2363 162.903 28.5065 163.151 28.6953C163.398 28.8776 163.76 28.9688 164.235 28.9688C164.808 28.9688 165.286 28.8613 165.67 28.6465C166.055 28.4316 166.341 28.1582 166.53 27.8262C166.725 27.4941 166.823 27.1523 166.823 26.8008V26.1562L167.194 28.8125H166.364L166.706 28.5C166.686 29.099 166.549 29.6003 166.295 30.0039C166.042 30.401 165.683 30.7005 165.221 30.9023C164.765 31.0977 164.219 31.1953 163.581 31.1953ZM179.235 31V23.9883C179.235 23.2721 179.027 22.9141 178.61 22.9141C178.141 22.9141 177.907 23.3014 177.907 24.0762L177.204 21.9375H178.083C178.141 21.4753 178.32 21.1139 178.62 20.8535C178.926 20.5866 179.326 20.4531 179.821 20.4531C180.517 20.4531 181.025 20.6452 181.344 21.0293C181.67 21.4134 181.833 22.0352 181.833 22.8945V31H179.235ZM171.969 31V20.6484H174.342L174.577 22.8359V31H171.969ZM175.944 31V23.793C175.944 23.207 175.736 22.9141 175.319 22.9141C174.824 22.9141 174.577 23.3014 174.577 24.0762L173.971 21.9375H174.713C174.857 20.9479 175.381 20.4531 176.286 20.4531C176.787 20.4531 177.181 20.6387 177.467 21.0098C177.76 21.3809 177.907 21.944 177.907 22.6992V31H175.944Z" fill="#ECB016"/>
</svg>
