<?xml version="1.0" ?><!DOCTYPE svg  PUBLIC '-//W3C//DTD SVG 1.1//EN'  'http://www.w3.org/Graphics/SVG/1.1/DTD/svg11.dtd'><svg enable-background="new 0 0 70 70" height="70px" id="Icons" version="1.1" viewBox="0 0 70 70" width="70px" xml:space="preserve" xmlns="http://www.w3.org/2000/svg" xmlns:xlink="http://www.w3.org/1999/xlink"><g><path d="M18.001,40.174c1.841-1.132,4.094-2.016,6.516-2.557c1.5,0.668,3.095,1.097,4.722,1.279   c1.043-0.376,2.119-0.707,3.223-0.975c-0.712-0.877-1.286-1.869-1.704-2.938c-2.058-0.042-3.989-0.598-5.67-1.554   c-4.024,0.687-7.581,2.157-10.219,4.02C14.358,37.81,14.033,38.376,14,39l0.003,5.895C13.943,46.039,14.854,47,16,47h5.009l0-0.999   l0-0.079l0.004-0.079c0.055-1.053,0.442-2.036,1.084-2.843h-4.094L18.001,40.174z"/><path d="M30.041,31.938C30.015,31.629,30,31.316,30,31c0-1.061,0.159-2.084,0.441-3.056c-1.943-0.271-3.449-1.927-3.449-3.944   c0-2.206,1.794-4,4-4c1.53,0,2.846,0.873,3.519,2.138c1.075-0.789,2.295-1.386,3.616-1.744C36.807,17.789,34.111,16,30.992,16   c-4.418,0-8,3.582-8,8C22.992,28.096,26.072,31.468,30.041,31.938z"/><path d="M55.191,44.329c-2.156-1.624-5.23-2.919-8.723-3.656C44.828,41.515,42.975,42,41.008,42c-2.15,0-4.165-0.576-5.913-1.57   c-4.024,0.687-7.581,2.157-10.219,4.02c-0.511,0.361-0.836,0.926-0.869,1.55l0.003,5.895C23.951,53.039,24.863,54,26.008,54h27.995   c1.064,0,1.942-0.833,1.997-1.895l0.007-6.155C56.008,45.31,55.702,44.714,55.191,44.329z M52.002,50H28.01l-0.001-2.826   c1.841-1.132,4.094-2.016,6.516-2.557C36.564,45.525,38.777,46,41.008,46c2.029,0,3.996-0.377,5.866-1.122   c1.989,0.523,3.756,1.25,5.132,2.112L52.002,50z"/><path d="M33,31c0,4.418,3.582,8,8,8s8-3.582,8-8s-3.582-8-8-8S33,26.582,33,31z M41,27c2.206,0,4,1.794,4,4c0,2.206-1.794,4-4,4   s-4-1.794-4-4C37,28.794,38.794,27,41,27z"/></g></svg>