<svg width="22" height="20" viewBox="0 0 22 20" fill="none" xmlns="http://www.w3.org/2000/svg">
<path d="M11 18.5C12.81 18.5 14.545 18.321 16.153 17.993C18.163 17.583 19.167 17.379 20.083 16.201C21 15.022 21 13.669 21 10.963V9.03704C21 6.33104 21 4.97704 20.083 3.79904C19.167 2.62104 18.163 2.41604 16.153 2.00704C14.4565 1.66699 12.7303 1.49715 11 1.50004C9.19 1.50004 7.455 1.67904 5.847 2.00704C3.837 2.41704 2.833 2.62104 1.917 3.79904C1 4.97804 1 6.33104 1 9.03704V10.963C1 13.669 1 15.023 1.917 16.201C2.833 17.379 3.837 17.584 5.847 17.993C7.455 18.321 9.19 18.5 11 18.5Z" stroke="#B5B5B5" stroke-width="1.5" stroke-linecap="round" stroke-linejoin="round"/>
<path d="M14.962 10.3128C14.814 10.9188 14.024 11.3528 12.445 12.2238C10.727 13.1708 9.868 13.6438 9.173 13.4608C8.94139 13.401 8.72501 13.293 8.538 13.1438C8 12.7088 8 11.8058 8 9.9998C8 8.1938 8 7.2908 8.538 6.8558C8.72 6.7088 8.938 6.5998 9.173 6.5388C9.868 6.3558 10.727 6.8288 12.445 7.7758C14.025 8.6458 14.814 9.0808 14.962 9.6868C15.012 9.8928 15.012 10.1068 14.962 10.3128Z" stroke="#B5B5B5" stroke-width="1.5" stroke-linecap="round" stroke-linejoin="round"/>
</svg>
